<svg width="24" height="24" viewBox="0 0 24 24" fill="none" xmlns="http://www.w3.org/2000/svg">
<path d="M20.9967 11.9671L11.9671 2.9375L2.9375 11.9671H4.94408V18.9901C4.94408 19.5223 5.15549 20.0327 5.53179 20.409C5.9081 20.7853 6.41848 20.9967 6.95066 20.9967H11.6661" stroke="white" stroke-width="1.60526" stroke-linecap="round" stroke-linejoin="round"/>
<path d="M8.95703 20.9968V14.977C8.95703 14.4449 9.16844 13.9345 9.54474 13.5582C9.92105 13.1819 10.4314 12.9705 10.9636 12.9705H12.9702" stroke="white" stroke-width="1.60526" stroke-linecap="round" stroke-linejoin="round"/>
<path d="M14.9766 17.9869C14.9766 18.7852 15.2937 19.5508 15.8581 20.1152C16.4226 20.6797 17.1882 20.9968 17.9864 20.9968C18.7847 20.9968 19.5503 20.6797 20.1147 20.1152C20.6792 19.5508 20.9963 18.7852 20.9963 17.9869C20.9963 17.1887 20.6792 16.4231 20.1147 15.8586C19.5503 15.2942 18.7847 14.9771 17.9864 14.9771C17.1882 14.9771 16.4226 15.2942 15.8581 15.8586C15.2937 16.4231 14.9766 17.1887 14.9766 17.9869Z" stroke="white" stroke-width="1.60526" stroke-linecap="round" stroke-linejoin="round"/>
<path d="M20.1943 20.1941L22.0003 22" stroke="white" stroke-width="1.60526" stroke-linecap="round" stroke-linejoin="round"/>
</svg>
