<svg width="23" height="16" viewBox="0 0 23 16" fill="none" xmlns="http://www.w3.org/2000/svg">
<path d="M11.5 15.1289C10.3932 15.1289 9.34456 14.9933 8.354 14.7222C7.36898 14.4565 6.45312 14.1051 5.60645 13.668C4.7653 13.2253 4.00993 12.7383 3.34033 12.207C2.67074 11.6758 2.09798 11.1445 1.62207 10.6133C1.14616 10.0765 0.780924 9.58122 0.526367 9.12744C0.277344 8.66813 0.152832 8.29736 0.152832 8.01514C0.152832 7.73291 0.277344 7.36491 0.526367 6.91113C0.780924 6.45182 1.14616 5.95654 1.62207 5.42529C2.09798 4.88851 2.67074 4.35449 3.34033 3.82324C4.01546 3.29199 4.7736 2.80778 5.61475 2.37061C6.46143 1.9279 7.37728 1.57373 8.3623 1.30811C9.35286 1.03695 10.3988 0.901367 11.5 0.901367C12.6123 0.901367 13.6637 1.03695 14.6543 1.30811C15.6504 1.57373 16.569 1.9279 17.4102 2.37061C18.2568 2.80778 19.0122 3.29199 19.6763 3.82324C20.3459 4.35449 20.9159 4.88851 21.3862 5.42529C21.8566 5.95654 22.2163 6.45182 22.4653 6.91113C22.7144 7.36491 22.8389 7.73291 22.8389 8.01514C22.8389 8.29736 22.7144 8.66813 22.4653 9.12744C22.2163 9.58122 21.8566 10.0765 21.3862 10.6133C20.9159 11.1445 20.3459 11.6758 19.6763 12.207C19.0122 12.7383 18.2596 13.2253 17.4185 13.668C16.5773 14.1051 15.6587 14.4565 14.6626 14.7222C13.672 14.9933 12.6178 15.1289 11.5 15.1289ZM11.5 13.8174C12.4076 13.8174 13.2791 13.7039 14.1147 13.4771C14.9559 13.2502 15.7445 12.9513 16.4805 12.5806C17.2165 12.2043 17.8833 11.7948 18.481 11.3521C19.0841 10.9093 19.6016 10.4722 20.0332 10.0405C20.4648 9.60335 20.7969 9.20492 21.0293 8.84521C21.2673 8.48551 21.3862 8.20882 21.3862 8.01514C21.3862 7.84912 21.2673 7.59456 21.0293 7.25146C20.7969 6.90837 20.4648 6.51823 20.0332 6.08105C19.6016 5.63835 19.0841 5.19287 18.481 4.74463C17.8833 4.29639 17.2165 3.88135 16.4805 3.49951C15.7445 3.11214 14.9559 2.80225 14.1147 2.56982C13.2791 2.33187 12.4076 2.21289 11.5 2.21289C10.5869 2.21289 9.7098 2.33187 8.86865 2.56982C8.02751 2.80225 7.23893 3.11214 6.50293 3.49951C5.76693 3.88135 5.1001 4.29639 4.50244 4.74463C3.90479 5.19287 3.38737 5.63835 2.9502 6.08105C2.51855 6.51823 2.18652 6.90837 1.9541 7.25146C1.72168 7.59456 1.60547 7.84912 1.60547 8.01514C1.60547 8.20882 1.72168 8.48551 1.9541 8.84521C2.18652 9.20492 2.51855 9.60335 2.9502 10.0405C3.38737 10.4722 3.90479 10.9093 4.50244 11.3521C5.1001 11.7948 5.76693 12.2043 6.50293 12.5806C7.23893 12.9513 8.02751 13.2502 8.86865 13.4771C9.7098 13.7039 10.5869 13.8174 11.5 13.8174ZM11.5 12.6553C10.8581 12.6553 10.2549 12.5363 9.69043 12.2983C9.12598 12.0549 8.6307 11.7201 8.20459 11.2939C7.77848 10.8678 7.44368 10.3726 7.2002 9.80811C6.95671 9.24365 6.83496 8.64046 6.83496 7.99854C6.83496 7.35661 6.95671 6.75342 7.2002 6.18896C7.44368 5.62451 7.77848 5.12923 8.20459 4.70312C8.6307 4.27702 9.12598 3.94499 9.69043 3.70703C10.2549 3.46354 10.8581 3.3418 11.5 3.3418C12.1419 3.3418 12.7424 3.46354 13.3013 3.70703C13.8657 3.94499 14.361 4.27702 14.7871 4.70312C15.2188 5.12923 15.5535 5.62451 15.7915 6.18896C16.035 6.75342 16.1567 7.35661 16.1567 7.99854C16.1567 8.64046 16.035 9.24365 15.7915 9.80811C15.5535 10.3726 15.2188 10.8678 14.7871 11.2939C14.361 11.7201 13.8657 12.0549 13.3013 12.2983C12.7424 12.5363 12.1419 12.6553 11.5 12.6553ZM11.5 9.55078C11.9261 9.55078 12.2886 9.40137 12.5874 9.10254C12.8918 8.79818 13.0439 8.43294 13.0439 8.00684C13.0439 7.58073 12.8918 7.21826 12.5874 6.91943C12.2886 6.61507 11.9261 6.46289 11.5 6.46289C11.0739 6.46289 10.7087 6.61507 10.4043 6.91943C10.1055 7.21826 9.95605 7.58073 9.95605 8.00684C9.95605 8.43294 10.1055 8.79818 10.4043 9.10254C10.7087 9.40137 11.0739 9.55078 11.5 9.55078Z" fill="#00A19A"/>
</svg>
