<svg width="23" height="16" viewBox="0 0 23 16" fill="none" xmlns="http://www.w3.org/2000/svg">
<path d="M11.5 0.901367C12.6123 0.901367 13.6637 1.03695 14.6543 1.30811C15.6504 1.57373 16.569 1.9279 17.4102 2.37061C18.2568 2.80778 19.0122 3.29199 19.6763 3.82324C20.3459 4.35449 20.9159 4.88851 21.3862 5.42529C21.8566 5.95654 22.2163 6.45182 22.4653 6.91113C22.7144 7.36491 22.8389 7.73291 22.8389 8.01514C22.8389 8.33057 22.6839 8.75391 22.374 9.28516C22.0641 9.81641 21.6159 10.3892 21.0293 11.0034C20.4482 11.6121 19.751 12.1932 18.9375 12.7466L17.9331 11.7505C18.4588 11.4019 18.9347 11.0422 19.3608 10.6714C19.7869 10.3006 20.1494 9.94368 20.4482 9.60059C20.7526 9.25749 20.985 8.94759 21.1455 8.6709C21.306 8.39421 21.3862 8.17562 21.3862 8.01514C21.3862 7.84912 21.2673 7.59456 21.0293 7.25146C20.7969 6.90837 20.4648 6.51823 20.0332 6.08105C19.6016 5.63835 19.0841 5.19287 18.481 4.74463C17.8833 4.29639 17.2165 3.88135 16.4805 3.49951C15.7445 3.11214 14.9559 2.80225 14.1147 2.56982C13.2791 2.33187 12.4076 2.21289 11.5 2.21289C11.0241 2.21289 10.5592 2.25163 10.1055 2.3291C9.65723 2.40104 9.22559 2.50065 8.81055 2.62793L7.70654 1.52393C8.2876 1.33577 8.89355 1.18636 9.52441 1.07568C10.1608 0.959473 10.8193 0.901367 11.5 0.901367ZM11.5 15.1289C10.3932 15.1289 9.34456 14.9933 8.354 14.7222C7.36898 14.4565 6.45312 14.1051 5.60645 13.668C4.7653 13.2253 4.00993 12.7383 3.34033 12.207C2.67074 11.6758 2.09798 11.1445 1.62207 10.6133C1.14616 10.0765 0.780924 9.58122 0.526367 9.12744C0.277344 8.66813 0.152832 8.29736 0.152832 8.01514C0.152832 7.77165 0.246908 7.46452 0.435059 7.09375C0.62321 6.71745 0.897135 6.30518 1.25684 5.85693C1.61654 5.40869 2.05094 4.95215 2.56006 4.4873C3.07471 4.01693 3.65576 3.56868 4.30322 3.14258L5.33252 4.17188C4.76253 4.53711 4.24788 4.91341 3.78857 5.30078C3.3348 5.68815 2.94466 6.06445 2.61816 6.42969C2.29167 6.78939 2.03988 7.11035 1.86279 7.39258C1.69124 7.66927 1.60547 7.87679 1.60547 8.01514C1.60547 8.20882 1.72168 8.48551 1.9541 8.84521C2.18652 9.20492 2.51855 9.60335 2.9502 10.0405C3.38737 10.4722 3.90479 10.9093 4.50244 11.3521C5.1001 11.7948 5.76693 12.2043 6.50293 12.5806C7.23893 12.9513 8.02751 13.2502 8.86865 13.4771C9.7098 13.7039 10.5869 13.8174 11.5 13.8174C12.0257 13.8174 12.5404 13.7759 13.0439 13.6929C13.5531 13.6099 14.0428 13.4937 14.5132 13.3442L15.5923 14.4316C14.9725 14.6475 14.3195 14.8162 13.6333 14.938C12.9471 15.0653 12.236 15.1289 11.5 15.1289ZM11.5 3.3667C12.1419 3.3667 12.7451 3.48568 13.3096 3.72363C13.874 3.96159 14.3693 4.29362 14.7954 4.71973C15.2215 5.1403 15.5535 5.63281 15.7915 6.19727C16.035 6.76172 16.1567 7.36768 16.1567 8.01514C16.1567 8.3029 16.1263 8.58236 16.0654 8.85352C16.0101 9.12467 15.9299 9.38753 15.8247 9.64209L9.87305 3.69043C10.1221 3.59082 10.3822 3.51335 10.6533 3.45801C10.93 3.39714 11.2122 3.3667 11.5 3.3667ZM11.5 12.6636C10.847 12.6636 10.2383 12.5418 9.67383 12.2983C9.10938 12.0549 8.6141 11.7201 8.18799 11.2939C7.76188 10.8623 7.42708 10.367 7.18359 9.80811C6.94564 9.24365 6.82666 8.646 6.82666 8.01514C6.82666 7.67204 6.86263 7.34001 6.93457 7.01904C7.01204 6.69255 7.11995 6.38542 7.2583 6.09766L13.4009 12.2319C13.1131 12.3703 12.8088 12.4782 12.4878 12.5557C12.1668 12.6276 11.8376 12.6636 11.5 12.6636ZM17.9829 15.2036L4.0957 1.33301C3.97396 1.21126 3.91309 1.06185 3.91309 0.884766C3.91309 0.702148 3.97396 0.549967 4.0957 0.428223C4.22298 0.300944 4.37516 0.240072 4.55225 0.245605C4.73486 0.245605 4.88704 0.306478 5.00879 0.428223L18.8877 14.2988C19.015 14.4261 19.0814 14.5728 19.0869 14.7388C19.0924 14.9103 19.026 15.0653 18.8877 15.2036C18.7604 15.342 18.6082 15.4084 18.4312 15.4028C18.2596 15.3973 18.1102 15.3309 17.9829 15.2036Z" fill="#00A19A"/>
</svg>
