<svg width="16" height="16" viewBox="0 0 16 16" fill="none" xmlns="http://www.w3.org/2000/svg">
<path d="M8 15.1826C6.96973 15.1826 6.00293 14.9873 5.09961 14.5967C4.19629 14.2109 3.40283 13.6763 2.71924 12.9927C2.03564 12.3042 1.49854 11.5107 1.10791 10.6123C0.722168 9.70898 0.529297 8.74219 0.529297 7.71191C0.529297 6.68164 0.722168 5.71484 1.10791 4.81152C1.49854 3.9082 2.03564 3.11475 2.71924 2.43115C3.40283 1.74756 4.19629 1.21289 5.09961 0.827148C6.00293 0.436523 6.96973 0.241211 8 0.241211C9.03027 0.241211 9.99707 0.436523 10.9004 0.827148C11.8037 1.21289 12.5972 1.74756 13.2808 2.43115C13.9644 3.11475 14.499 3.9082 14.8848 4.81152C15.2754 5.71484 15.4707 6.68164 15.4707 7.71191C15.4707 8.74219 15.2754 9.70898 14.8848 10.6123C14.499 11.5107 13.9644 12.3042 13.2808 12.9927C12.5972 13.6763 11.8037 14.2109 10.9004 14.5967C9.99707 14.9873 9.03027 15.1826 8 15.1826ZM7.17969 11.2861C7.30664 11.2861 7.42139 11.2568 7.52393 11.1982C7.62646 11.1396 7.7168 11.0518 7.79492 10.9346L11.2373 5.50732C11.2812 5.43408 11.3228 5.35596 11.3618 5.27295C11.4009 5.18994 11.4204 5.10693 11.4204 5.02393C11.4204 4.85303 11.3569 4.71875 11.23 4.62109C11.103 4.51855 10.9614 4.46729 10.8052 4.46729C10.5903 4.46729 10.4146 4.57959 10.2778 4.8042L7.15039 9.82861L5.66357 7.90967C5.5708 7.7876 5.48047 7.70459 5.39258 7.66064C5.30957 7.6167 5.21436 7.59473 5.10693 7.59473C4.94092 7.59473 4.80176 7.65576 4.68945 7.77783C4.57715 7.89502 4.521 8.03662 4.521 8.20264C4.521 8.28564 4.53564 8.36865 4.56494 8.45166C4.59912 8.52979 4.64307 8.60547 4.69678 8.67871L6.53516 10.9346C6.63281 11.0615 6.73291 11.1519 6.83545 11.2056C6.93799 11.2593 7.05273 11.2861 7.17969 11.2861Z" fill="#00A19A"/>
</svg>
