<svg width="15" height="15" viewBox="0 0 15 15" fill="none" xmlns="http://www.w3.org/2000/svg">
<path d="M0.68457 6.33496C0.68457 5.5293 0.835938 4.7749 1.13867 4.07178C1.44141 3.36377 1.86133 2.74121 2.39844 2.2041C2.93555 1.66699 3.55566 1.24707 4.25879 0.944336C4.9668 0.641602 5.72363 0.490234 6.5293 0.490234C7.33496 0.490234 8.08936 0.641602 8.79248 0.944336C9.50049 1.24707 10.123 1.66699 10.6602 2.2041C11.1973 2.74121 11.6172 3.36377 11.9199 4.07178C12.2227 4.7749 12.374 5.5293 12.374 6.33496C12.374 7.00391 12.2666 7.63867 12.0518 8.23926C11.8418 8.83984 11.5488 9.38428 11.1729 9.87256L14.7544 13.4761C14.8325 13.5542 14.8911 13.6445 14.9302 13.7471C14.9741 13.8496 14.9961 13.9595 14.9961 14.0767C14.9961 14.2378 14.9595 14.3843 14.8862 14.5161C14.8179 14.6479 14.7202 14.7505 14.5933 14.8237C14.4663 14.9019 14.3198 14.9409 14.1538 14.9409C14.0366 14.9409 13.9243 14.9189 13.8169 14.875C13.7144 14.8359 13.6191 14.7749 13.5312 14.6919L9.92773 11.0811C9.44922 11.4229 8.92188 11.6914 8.3457 11.8867C7.76953 12.082 7.16406 12.1797 6.5293 12.1797C5.72363 12.1797 4.9668 12.0283 4.25879 11.7256C3.55566 11.4229 2.93555 11.0029 2.39844 10.4658C1.86133 9.92871 1.44141 9.30859 1.13867 8.60547C0.835938 7.89746 0.68457 7.14062 0.68457 6.33496ZM1.93701 6.33496C1.93701 6.96973 2.0542 7.56543 2.28857 8.12207C2.52783 8.67383 2.85742 9.15967 3.27734 9.57959C3.70215 9.99951 4.19043 10.3291 4.74219 10.5684C5.29883 10.8076 5.89453 10.9272 6.5293 10.9272C7.16406 10.9272 7.75732 10.8076 8.30908 10.5684C8.86572 10.3291 9.354 9.99951 9.77393 9.57959C10.1938 9.15967 10.5234 8.67383 10.7627 8.12207C11.002 7.56543 11.1216 6.96973 11.1216 6.33496C11.1216 5.7002 11.002 5.10693 10.7627 4.55518C10.5234 3.99854 10.1938 3.51025 9.77393 3.09033C9.354 2.66553 8.86572 2.33594 8.30908 2.10156C7.75732 1.8623 7.16406 1.74268 6.5293 1.74268C5.89453 1.74268 5.29883 1.8623 4.74219 2.10156C4.19043 2.33594 3.70215 2.66553 3.27734 3.09033C2.85742 3.51025 2.52783 3.99854 2.28857 4.55518C2.0542 5.10693 1.93701 5.7002 1.93701 6.33496Z" fill="#00A19A"/>
</svg>
