<svg width="24" height="24" viewBox="0 0 24 24" fill="none" xmlns="http://www.w3.org/2000/svg">
<path d="M5.25 21V19C5.25 17.9391 5.67143 16.9217 6.42157 16.1716C7.17172 15.4214 8.18913 15 9.25 15H12.75M16.4617 18.6213H20.7043V20.2123M18.583 20.2121V18.6211M7.25098 7C7.25098 8.06087 7.6724 9.07828 8.42255 9.82843C9.17269 10.5786 10.1901 11 11.251 11C12.3118 11 13.3293 10.5786 14.0794 9.82843C14.8295 9.07828 15.251 8.06087 15.251 7C15.251 5.93913 14.8295 4.92172 14.0794 4.17157C13.3293 3.42143 12.3118 3 11.251 3C10.1901 3 9.17269 3.42143 8.42255 4.17157C7.6724 4.92172 7.25098 5.93913 7.25098 7ZM15.9318 17.5607C16.2131 17.842 16.3711 18.2235 16.3711 18.6213C16.3711 19.0191 16.2131 19.4007 15.9318 19.682C15.6504 19.9633 15.2689 20.1213 14.8711 20.1213C14.4733 20.1213 14.0917 19.9633 13.8104 19.682C13.5291 19.4007 13.3711 19.0191 13.3711 18.6213C13.3711 18.2235 13.5291 17.842 13.8104 17.5607C14.0917 17.2794 14.4733 17.1213 14.8711 17.1213C15.2689 17.1213 15.6504 17.2794 15.9318 17.5607Z" stroke="#231D45" stroke-width="2" stroke-linecap="round" stroke-linejoin="round"/>
</svg>
