<svg width="15" height="9" viewBox="0 0 15 9" fill="none" xmlns="http://www.w3.org/2000/svg">
<path d="M0 1.0957C0 0.88444 0.0483398 0.696452 0.14502 0.531738C0.241699 0.367025 0.372396 0.238118 0.537109 0.14502C0.701823 0.0483398 0.88623 0 1.09033 0H13.1323C13.3364 0 13.5208 0.0483398 13.6855 0.14502C13.8503 0.238118 13.981 0.367025 14.0776 0.531738C14.1743 0.696452 14.2227 0.88444 14.2227 1.0957C14.2227 1.2998 14.1743 1.486 14.0776 1.6543C13.981 1.81901 13.8503 1.94971 13.6855 2.04639C13.5208 2.13949 13.3364 2.18604 13.1323 2.18604H1.09033C0.88623 2.18604 0.701823 2.13949 0.537109 2.04639C0.372396 1.94971 0.241699 1.81901 0.14502 1.6543C0.0483398 1.486 0 1.2998 0 1.0957ZM0.854004 1.0957C0.854004 1.16732 0.879069 1.22819 0.929199 1.27832C0.98291 1.32487 1.04915 1.34814 1.12793 1.34814H13.0947C13.1735 1.34814 13.238 1.32487 13.2881 1.27832C13.3418 1.22819 13.3687 1.16732 13.3687 1.0957C13.3687 1.02051 13.3418 0.959635 13.2881 0.913086C13.238 0.862956 13.1735 0.837891 13.0947 0.837891H1.12793C1.04915 0.837891 0.98291 0.862956 0.929199 0.913086C0.879069 0.959635 0.854004 1.02051 0.854004 1.0957ZM4.01221 7.24561C2.99886 7.24561 2.23258 7.00033 1.71338 6.50977C1.19775 6.01921 0.939941 5.29411 0.939941 4.33447V1.7832H1.80469V4.33447C1.80469 5.01123 1.99089 5.52148 2.36328 5.86523C2.73568 6.20898 3.28532 6.38086 4.01221 6.38086H10.2158C10.9391 6.38086 11.487 6.20898 11.8594 5.86523C12.2318 5.52148 12.418 5.01123 12.418 4.33447V1.7832H13.2827V4.33447C13.2827 5.29411 13.0231 6.01921 12.5039 6.50977C11.9883 7.00033 11.2256 7.24561 10.2158 7.24561H4.01221ZM2.51367 8.44336C2.40267 8.40397 2.3221 8.32878 2.27197 8.21777C2.22184 8.11035 2.21647 8.00114 2.25586 7.89014L2.7124 6.62793L3.52344 6.92334L3.06689 8.18555C3.02751 8.29655 2.95231 8.37712 2.84131 8.42725C2.73389 8.48096 2.62467 8.48633 2.51367 8.44336ZM11.7144 8.44336C11.5998 8.48633 11.487 8.48096 11.376 8.42725C11.2686 8.37712 11.1951 8.29655 11.1558 8.18555L10.6992 6.92334L11.5103 6.62793L11.9668 7.89014C12.0062 8.00114 12.0008 8.11035 11.9507 8.21777C11.9006 8.32878 11.8218 8.40397 11.7144 8.44336Z" fill="white"/>
</svg>
