<svg width="14" height="14" viewBox="0 0 14 14" fill="none" xmlns="http://www.w3.org/2000/svg">
<path d="M0.98877 7.36084C0.76416 7.35596 0.578613 7.30957 0.432129 7.22168C0.285645 7.12891 0.175781 7.01172 0.102539 6.87012C0.0341797 6.72363 0.00732422 6.56982 0.0219727 6.40869C0.0366211 6.24268 0.0927734 6.08887 0.19043 5.94727C0.288086 5.80566 0.432129 5.69092 0.622559 5.60303L12.3267 0.175781C12.5854 0.0585938 12.8223 0.00976562 13.0371 0.0292969C13.2568 0.0439453 13.4375 0.117188 13.5791 0.249023C13.7256 0.375977 13.8135 0.544434 13.8428 0.754395C13.8721 0.964355 13.8257 1.20361 13.7036 1.47217L8.29102 13.1104C8.19336 13.3203 8.06885 13.479 7.91748 13.5864C7.771 13.6987 7.61475 13.7622 7.44873 13.7769C7.28271 13.7964 7.12646 13.7695 6.97998 13.6963C6.8335 13.6279 6.71387 13.5205 6.62109 13.374C6.5332 13.2275 6.48926 13.0444 6.48926 12.8247L6.47461 7.5293C6.47461 7.43164 6.42578 7.38281 6.32812 7.38281L0.98877 7.36084Z" fill="#00A19A"/>
</svg>
