<svg width="10" height="10" viewBox="0 0 10 10" fill="none" xmlns="http://www.w3.org/2000/svg">
<path d="M1.94971 0.923828C1.8208 0.923828 1.71159 0.879069 1.62207 0.789551C1.53255 0.696452 1.48779 0.58724 1.48779 0.461914C1.48779 0.336589 1.53255 0.229167 1.62207 0.139648C1.71159 0.0465495 1.8208 0 1.94971 0C2.07503 0 2.18245 0.0465495 2.27197 0.139648C2.36507 0.229167 2.41162 0.336589 2.41162 0.461914C2.41162 0.58724 2.36507 0.696452 2.27197 0.789551C2.18245 0.879069 2.07503 0.923828 1.94971 0.923828ZM3.44824 0.923828C3.32292 0.923828 3.2137 0.879069 3.12061 0.789551C3.03109 0.696452 2.98633 0.58724 2.98633 0.461914C2.98633 0.336589 3.03109 0.229167 3.12061 0.139648C3.2137 0.0465495 3.32292 0 3.44824 0C3.57357 0 3.68099 0.0465495 3.77051 0.139648C3.86361 0.229167 3.91016 0.336589 3.91016 0.461914C3.91016 0.58724 3.86361 0.696452 3.77051 0.789551C3.68099 0.879069 3.57357 0.923828 3.44824 0.923828ZM4.95215 0.923828C4.82324 0.923828 4.71403 0.879069 4.62451 0.789551C4.53499 0.696452 4.49023 0.58724 4.49023 0.461914C4.49023 0.336589 4.53499 0.229167 4.62451 0.139648C4.71403 0.0465495 4.82324 0 4.95215 0C5.07747 0 5.1849 0.0465495 5.27441 0.139648C5.36751 0.229167 5.41406 0.336589 5.41406 0.461914C5.41406 0.58724 5.36751 0.696452 5.27441 0.789551C5.1849 0.879069 5.07747 0.923828 4.95215 0.923828ZM6.45068 0.923828C6.32536 0.923828 6.21615 0.879069 6.12305 0.789551C6.03353 0.696452 5.98877 0.58724 5.98877 0.461914C5.98877 0.336589 6.03353 0.229167 6.12305 0.139648C6.21615 0.0465495 6.32536 0 6.45068 0C6.57959 0 6.6888 0.0465495 6.77832 0.139648C6.86784 0.229167 6.9126 0.336589 6.9126 0.461914C6.9126 0.58724 6.86784 0.696452 6.77832 0.789551C6.6888 0.879069 6.57959 0.923828 6.45068 0.923828ZM7.95459 0.923828C7.82568 0.923828 7.71647 0.879069 7.62695 0.789551C7.53743 0.696452 7.49268 0.58724 7.49268 0.461914C7.49268 0.336589 7.53743 0.229167 7.62695 0.139648C7.71647 0.0465495 7.82568 0 7.95459 0C8.07992 0 8.18734 0.0465495 8.27686 0.139648C8.36995 0.229167 8.4165 0.336589 8.4165 0.461914C8.4165 0.58724 8.36995 0.696452 8.27686 0.789551C8.18734 0.879069 8.07992 0.923828 7.95459 0.923828ZM9.45312 0.923828C9.3278 0.923828 9.21859 0.879069 9.12549 0.789551C9.03597 0.696452 8.99121 0.58724 8.99121 0.461914C8.99121 0.336589 9.03597 0.229167 9.12549 0.139648C9.21859 0.0465495 9.3278 0 9.45312 0C9.57845 0 9.68587 0.0465495 9.77539 0.139648C9.86849 0.229167 9.91504 0.336589 9.91504 0.461914C9.91504 0.58724 9.86849 0.696452 9.77539 0.789551C9.68587 0.879069 9.57845 0.923828 9.45312 0.923828ZM9.45312 2.42236C9.3278 2.42236 9.21859 2.3776 9.12549 2.28809C9.03597 2.19857 8.99121 2.08936 8.99121 1.96045C8.99121 1.83512 9.03597 1.7277 9.12549 1.63818C9.21859 1.54508 9.3278 1.49854 9.45312 1.49854C9.57845 1.49854 9.68587 1.54508 9.77539 1.63818C9.86849 1.7277 9.91504 1.83512 9.91504 1.96045C9.91504 2.08936 9.86849 2.19857 9.77539 2.28809C9.68587 2.3776 9.57845 2.42236 9.45312 2.42236ZM9.45312 3.92627C9.3278 3.92627 9.21859 3.88151 9.12549 3.79199C9.03597 3.69889 8.99121 3.58968 8.99121 3.46436C8.99121 3.33545 9.03597 3.22624 9.12549 3.13672C9.21859 3.0472 9.3278 3.00244 9.45312 3.00244C9.57845 3.00244 9.68587 3.0472 9.77539 3.13672C9.86849 3.22624 9.91504 3.33545 9.91504 3.46436C9.91504 3.58968 9.86849 3.69889 9.77539 3.79199C9.68587 3.88151 9.57845 3.92627 9.45312 3.92627ZM9.45312 5.4248C9.3278 5.4248 9.21859 5.38005 9.12549 5.29053C9.03597 5.20101 8.99121 5.0918 8.99121 4.96289C8.99121 4.83757 9.03597 4.73014 9.12549 4.64062C9.21859 4.54753 9.3278 4.50098 9.45312 4.50098C9.57845 4.50098 9.68587 4.54753 9.77539 4.64062C9.86849 4.73014 9.91504 4.83757 9.91504 4.96289C9.91504 5.0918 9.86849 5.20101 9.77539 5.29053C9.68587 5.38005 9.57845 5.4248 9.45312 5.4248ZM9.45312 6.92871C9.3278 6.92871 9.21859 6.88395 9.12549 6.79443C9.03597 6.70133 8.99121 6.59212 8.99121 6.4668C8.99121 6.34147 9.03597 6.23405 9.12549 6.14453C9.21859 6.05143 9.3278 6.00488 9.45312 6.00488C9.57845 6.00488 9.68587 6.05143 9.77539 6.14453C9.86849 6.23405 9.91504 6.34147 9.91504 6.4668C9.91504 6.59212 9.86849 6.70133 9.77539 6.79443C9.68587 6.88395 9.57845 6.92871 9.45312 6.92871ZM9.45312 8.42725C9.3278 8.42725 9.21859 8.38249 9.12549 8.29297C9.03597 8.20345 8.99121 8.09424 8.99121 7.96533C8.99121 7.84001 9.03597 7.73258 9.12549 7.64307C9.21859 7.54997 9.3278 7.50342 9.45312 7.50342C9.57845 7.50342 9.68587 7.54997 9.77539 7.64307C9.86849 7.73258 9.91504 7.84001 9.91504 7.96533C9.91504 8.09424 9.86849 8.20345 9.77539 8.29297C9.68587 8.38249 9.57845 8.42725 9.45312 8.42725ZM0.429688 9.92578C0.300781 9.92578 0.19694 9.88639 0.118164 9.80762C0.039388 9.72884 0 9.625 0 9.49609V0.424316C0 0.306152 0.0411784 0.205892 0.123535 0.123535C0.205892 0.0411784 0.306152 0 0.424316 0C0.546061 0 0.648112 0.0411784 0.730469 0.123535C0.816406 0.205892 0.859375 0.306152 0.859375 0.424316V8.91064C0.859375 9.01449 0.911296 9.06641 1.01514 9.06641H9.48535C9.60352 9.06641 9.70378 9.10758 9.78613 9.18994C9.87207 9.2723 9.91504 9.37435 9.91504 9.49609C9.91504 9.61426 9.87207 9.71452 9.78613 9.79688C9.70378 9.88281 9.60352 9.92578 9.48535 9.92578H0.429688ZM4.2915 7.03076C4.37744 7.1167 4.40251 7.2098 4.3667 7.31006C4.33089 7.41032 4.25033 7.47119 4.125 7.49268L2.39014 7.85791C2.27913 7.88656 2.18424 7.86328 2.10547 7.78809C2.02669 7.70931 1.99805 7.61442 2.01953 7.50342L2.39551 5.77393C2.42057 5.65218 2.48503 5.5734 2.58887 5.5376C2.69271 5.50179 2.7876 5.52507 2.87354 5.60742L4.2915 7.03076ZM2.53516 7.34766C2.47428 7.2832 2.44385 7.20801 2.44385 7.12207C2.44743 7.03255 2.48145 6.95557 2.5459 6.89111L6.85352 2.56201C6.91797 2.50114 6.99495 2.4707 7.08447 2.4707C7.17399 2.46712 7.25277 2.49756 7.3208 2.56201C7.38525 2.62646 7.41569 2.70345 7.41211 2.79297C7.40853 2.87891 7.3763 2.9541 7.31543 3.01855L3.00781 7.34766C2.94336 7.40853 2.86458 7.44076 2.77148 7.44434C2.68197 7.44434 2.60319 7.41211 2.53516 7.34766ZM5.61816 2.87891C5.53223 2.79297 5.50716 2.69987 5.54297 2.59961C5.57878 2.49935 5.65934 2.43848 5.78467 2.41699L7.51416 2.05176C7.62516 2.02311 7.72005 2.04818 7.79883 2.12695C7.8776 2.20215 7.90625 2.29525 7.88477 2.40625L7.50879 4.13574C7.48372 4.25749 7.41927 4.33805 7.31543 4.37744C7.21517 4.41325 7.12207 4.38818 7.03613 4.30225L5.61816 2.87891Z" fill="white"/>
</svg>
