<svg width="12" height="16" viewBox="0 0 12 16" fill="none" xmlns="http://www.w3.org/2000/svg">
<g clip-path="url(#clip0_18741_1127)">
<path d="M8.70224 3.66108C7.59305 3.66108 6.68485 4.35806 6.10423 4.35806C5.48636 4.35806 4.68239 3.66108 3.71465 3.66108C1.87593 3.66108 0.0148926 5.2695 0.0148926 8.21062C0.0148926 10.0488 0.699755 11.9866 1.55584 13.235C2.28537 14.292 2.92557 15.1422 3.84864 15.1422C4.75683 15.1422 5.15882 14.5371 6.29033 14.5371C7.43672 14.5371 7.69729 15.1422 8.70224 15.1422C9.69975 15.1422 10.3623 14.2001 10.9951 13.2733C11.6948 12.2087 11.9926 11.1747 12 11.1211C11.9405 11.1058 10.0348 10.3016 10.0348 8.05742C10.0348 6.11201 11.531 5.23886 11.6204 5.16993C10.6303 3.70704 9.11914 3.66108 8.70224 3.66108ZM8.18115 2.42029C8.63528 1.85352 8.95538 1.07994 8.95538 0.298707C8.95538 0.191479 8.94788 0.0842506 8.93302 0C8.18859 0.0306366 7.29532 0.505505 6.76674 1.14887C6.34245 1.63906 5.95535 2.42029 5.95535 3.20153C5.95535 3.32408 5.97768 3.43896 5.98513 3.47726C6.02979 3.48492 6.10423 3.50024 6.18612 3.50024C6.84862 3.50024 7.68243 3.04068 8.18115 2.42029Z" fill="black" fill-opacity="0.85"/>
</g>
<defs>
<clipPath id="clip0_18741_1127">
<rect width="12" height="16" fill="white"/>
</clipPath>
</defs>
</svg>
