<svg width="20" height="20" viewBox="0 0 20 20" fill="none" xmlns="http://www.w3.org/2000/svg">
<path d="M19 10.002C19 14.4942 15.7087 18.2176 11.4062 18.8926V12.6035H13.5033L13.9023 10.002H11.4062V8.31375C11.4062 7.60184 11.755 6.9082 12.873 6.9082H14.0078V4.69336C14.0078 4.69336 12.9777 4.51758 11.993 4.51758C9.93742 4.51758 8.59375 5.76352 8.59375 8.01914V10.002H6.30859V12.6035H8.59375V18.8926C4.29133 18.2176 1 14.4942 1 10.002C1 5.03156 5.02961 1.00195 10 1.00195C14.9704 1.00195 19 5.03156 19 10.002Z" fill="#1877F2"/>
<path d="M13.5033 12.6035L13.9023 10.002H11.4062V8.31371C11.4062 7.60198 11.7549 6.9082 12.8729 6.9082H14.0078V4.69336C14.0078 4.69336 12.9779 4.51758 11.9932 4.51758C9.93739 4.51758 8.59375 5.76352 8.59375 8.01914V10.002H6.30859V12.6035H8.59375V18.8926C9.05198 18.9645 9.52159 19.002 10 19.002C10.4784 19.002 10.948 18.9645 11.4062 18.8926V12.6035H13.5033Z" fill="white"/>
</svg>
