<svg width="20" height="20" viewBox="0 0 20 20" fill="none" xmlns="http://www.w3.org/2000/svg">
<path d="M4.98942 11.8762L4.36287 14.2152L2.07283 14.2637C1.38844 12.9943 1.00024 11.5419 1.00024 9.99857C1.00024 8.50616 1.3632 7.09878 2.00656 5.85956H2.00705L4.04583 6.23334L4.93894 8.25989C4.75201 8.80484 4.65013 9.38984 4.65013 9.99857C4.6502 10.6592 4.76987 11.2922 4.98942 11.8762Z" fill="#FBBB00"/>
<path d="M18.8424 8.31854C18.9458 8.86297 18.9996 9.42523 18.9996 9.99986C18.9996 10.6442 18.9319 11.2727 18.8028 11.879C18.3647 13.9421 17.2199 15.7435 15.6341 17.0184L15.6336 17.0179L13.0656 16.8869L12.7022 14.6181C13.7545 14.0009 14.5769 13.0351 15.01 11.879H10.1975V8.31854H15.0803H18.8424Z" fill="#518EF8"/>
<path d="M15.6338 17.0175L15.6343 17.018C14.092 18.2577 12.1327 18.9995 9.99993 18.9995C6.57251 18.9995 3.59263 17.0838 2.07251 14.2646L4.98911 11.8771C5.74915 13.9056 7.70591 15.3496 9.99993 15.3496C10.986 15.3496 11.9097 15.083 12.7024 14.6177L15.6338 17.0175Z" fill="#28B446"/>
<path d="M15.7445 3.0702L12.8288 5.45717C12.0085 4.94438 11.0387 4.64815 9.99979 4.64815C7.65385 4.64815 5.66049 6.15836 4.93852 8.25954L2.0066 5.85921H2.0061C3.50397 2.9713 6.52143 0.99823 9.99979 0.99823C12.1835 0.99823 14.1858 1.7761 15.7445 3.0702Z" fill="#F14336"/>
</svg>
