<svg width="19" height="19" viewBox="0 0 19 19" fill="none" xmlns="http://www.w3.org/2000/svg">
<path d="M11.6738 8.73142C11.8085 8.17575 11.7667 7.5919 11.5542 7.0611C11.3416 6.5303 10.9689 6.07895 10.4879 5.76984C10.0069 5.46073 9.4415 5.30924 8.87037 5.33645C8.29925 5.36365 7.75081 5.5682 7.30136 5.92163C6.8519 6.27506 6.52379 6.75979 6.36266 7.30839C6.20154 7.85699 6.21542 8.44217 6.40237 8.98251C6.58933 9.52285 6.94006 9.99148 7.40576 10.3232C7.87147 10.6549 8.42899 10.8332 9.00076 10.8333M8.99221 17.6945C8.50921 17.6928 8.04651 17.5 7.70521 17.1582L3.81488 13.2688C2.95374 12.4076 2.32062 11.3456 1.97267 10.1785C1.62472 9.01145 1.57291 7.77609 1.82191 6.58398C2.0709 5.39187 2.61287 4.28053 3.39888 3.35031C4.18488 2.42008 5.19019 1.70025 6.32403 1.2558C7.45787 0.811352 8.68455 0.656277 9.89332 0.804576C11.1021 0.952876 12.2549 1.39988 13.2477 2.10523C14.2405 2.81059 15.0419 3.75209 15.5798 4.84473C16.1176 5.93737 16.3748 7.14676 16.3283 8.36371M16.5172 16.5168L18.1672 18.1668M11.7503 14.5C11.7503 15.2293 12.04 15.9288 12.5558 16.4445C13.0715 16.9603 13.771 17.25 14.5003 17.25C15.2297 17.25 15.9291 16.9603 16.4449 16.4445C16.9606 15.9288 17.2503 15.2293 17.2503 14.5C17.2503 13.7707 16.9606 13.0712 16.4449 12.5555C15.9291 12.0397 15.2297 11.75 14.5003 11.75C13.771 11.75 13.0715 12.0397 12.5558 12.5555C12.04 13.0712 11.7503 13.7707 11.7503 14.5Z" stroke="white" stroke-width="1.5" stroke-linecap="round" stroke-linejoin="round"/>
</svg>
