<svg width="44" height="24" viewBox="0 0 44 24" fill="none" xmlns="http://www.w3.org/2000/svg">
<path d="M28.7987 14.8913V15.9238H26.8233L26.8123 14.9642C26.8123 13.3473 26.1012 12.6786 24.8998 12.6786C23.6983 12.6786 22.9872 13.3473 22.9872 14.9642V16.9231H21.0254V14.8913C21.0254 12.3868 22.4722 11.001 24.9123 11.001C27.3524 11.001 28.7992 12.3868 28.7992 14.8913H28.7987Z" fill="white"/>
<path d="M19.0545 11.0147C21.4945 11.0147 22.9414 12.4005 22.9414 14.905V16.9368H20.9796V14.9779C20.9796 13.361 20.2805 12.6923 19.067 12.6923C17.8656 12.6923 17.1545 13.361 17.1545 14.9779L17.147 15.9375H15.1736L15.1685 14.905C15.1685 12.4005 16.6154 11.0147 19.0555 11.0147H19.0545Z" fill="white"/>
<path d="M23.7518 16.8756C23.7518 15.9071 22.9602 15.1223 21.9836 15.1223C21.0069 15.1223 20.2154 15.9075 20.2154 16.8756C20.2154 17.4397 20.4849 17.9398 20.9018 18.2604L20.4894 20.8071H23.4782L23.0658 18.2604C23.4827 17.9398 23.7523 17.4392 23.7523 16.8756H23.7518Z" fill="white"/>
<path d="M23.3612 16.8047C23.3612 16.0503 22.7442 15.4384 21.9833 15.4384C21.2224 15.4384 20.6053 16.0503 20.6053 16.8047C20.6053 17.2443 20.8151 17.634 21.1404 17.8836L20.8191 19.8676H23.148L22.8267 17.8836C23.1515 17.6336 23.3617 17.2438 23.3617 16.8047H23.3612Z" fill="white"/>
<path d="M34.6101 12.139C34.6086 11.5963 34.1645 11.1563 33.6163 11.1563C33.0682 11.1563 32.6226 11.5977 32.6226 12.1419H32.6246V16.5171C32.6246 18.134 31.9135 18.8028 30.7121 18.8028C29.5107 18.8028 28.7996 18.134 28.7996 16.5171V15.9232H26.8222V16.5901C26.8222 19.0945 28.2841 20.4803 30.7242 20.4803C33.1642 20.4803 34.6106 19.0945 34.6106 16.5901V12.139H34.6096H34.6101Z" fill="#00A19A"/>
<path d="M9.37514 12.139C9.37665 11.5963 9.82071 11.1563 10.3689 11.1563C10.9175 11.1563 11.3626 11.5977 11.3626 12.1419H11.3606V16.5171C11.3606 18.134 12.0717 18.8028 13.2731 18.8028C14.4871 18.8028 15.1736 18.134 15.1736 16.5171V15.9232H17.1475V16.5901C17.1475 19.0945 15.7006 20.4803 13.2606 20.4803C10.8205 20.4803 9.37414 19.0945 9.37414 16.5901V12.139H9.37514Z" fill="#00A19A"/>
<path d="M34.0274 8.02894L22.6478 1.64888C22.4919 1.56315 22.3113 1.51532 22.1278 1.51105H22.0991V1.58115L22.0795 1.51105H22.0524C21.8673 1.51579 21.6872 1.56362 21.5303 1.64982L13.6096 6.09044V5.31371C13.6096 4.80505 13.1419 4.39111 12.5676 4.39111C11.9933 4.39111 11.5256 4.80505 11.5256 5.31371V7.25932L10.1512 8.02989C9.66338 8.29843 9.51352 8.86866 9.81727 9.3006C10.1205 9.73253 10.7647 9.86515 11.2531 9.59613L22.0896 3.5206L32.9266 9.59661C33.094 9.68896 33.2826 9.73632 33.4752 9.73632C33.5547 9.73632 33.6347 9.72827 33.7136 9.71217C33.9847 9.65628 34.215 9.51041 34.3624 9.30107C34.6656 8.86913 34.5158 8.29938 34.0284 8.03084L34.0274 8.02894Z" fill="#00A19A"/>
<path d="M21.4295 6.0139H19.9464C19.8134 6.0139 19.7055 6.11547 19.7055 6.24076V7.63745C19.7055 7.76274 19.8134 7.86431 19.9464 7.86431H21.4295C21.5625 7.86431 21.6704 7.76274 21.6704 7.63745V6.24076C21.6704 6.11547 21.5625 6.0139 21.4295 6.0139Z" fill="white"/>
<path d="M23.9933 6.0139H22.5103C22.3772 6.0139 22.2694 6.11547 22.2694 6.24076V7.63745C22.2694 7.76274 22.3772 7.86431 22.5103 7.86431H23.9933C24.1264 7.86431 24.2342 7.76274 24.2342 7.63745V6.24076C24.2342 6.11547 24.1264 6.0139 23.9933 6.0139Z" fill="white"/>
<path d="M21.4295 8.33194H19.9464C19.8134 8.33194 19.7055 8.43351 19.7055 8.5588V9.95549C19.7055 10.0808 19.8134 10.1824 19.9464 10.1824H21.4295C21.5625 10.1824 21.6704 10.0808 21.6704 9.95549V8.5588C21.6704 8.43351 21.5625 8.33194 21.4295 8.33194Z" fill="white"/>
<path d="M23.9933 8.33194H22.5103C22.3772 8.33194 22.2694 8.43351 22.2694 8.5588V9.95549C22.2694 10.0808 22.3772 10.1824 22.5103 10.1824H23.9933C24.1264 10.1824 24.2342 10.0808 24.2342 9.95549V8.5588C24.2342 8.43351 24.1264 8.33194 23.9933 8.33194Z" fill="white"/>
</svg>
