<svg width="77" height="7" viewBox="0 0 77 7" fill="none" xmlns="http://www.w3.org/2000/svg">
<path fill-rule="evenodd" clip-rule="evenodd" d="M26.0614 0.774012C26.0614 0.454377 25.8203 0.195261 25.5228 0.195261H24.9843C24.6868 0.195261 24.4457 0.454377 24.4457 0.774012V5.78985C24.4457 6.10948 24.6868 6.3686 24.9843 6.3686H25.5228C25.8203 6.3686 26.0614 6.10948 26.0614 5.78985V0.774012ZM22.3078 1.42993H22.8464C23.1438 1.42993 23.385 1.69526 23.385 2.02257V5.77596C23.385 6.10326 23.1438 6.3686 22.8464 6.3686H22.3078C22.0104 6.3686 21.7692 6.10326 21.7692 5.77596V2.02257C21.7692 1.69526 22.0104 1.42993 22.3078 1.42993ZM20.1206 2.76748H19.582C19.2846 2.76748 19.0435 3.03619 19.0435 3.36767V5.76841C19.0435 6.09988 19.2846 6.36859 19.582 6.36859H20.1206C20.4181 6.36859 20.6592 6.09988 20.6592 5.76841V3.36767C20.6592 3.03619 20.4181 2.76748 20.1206 2.76748ZM17.4442 4.00215H16.9056C16.6081 4.00215 16.367 4.26703 16.367 4.59376V5.77699C16.367 6.10373 16.6081 6.3686 16.9056 6.3686H17.4442C17.7416 6.3686 17.9827 6.10373 17.9827 5.77699V4.59376C17.9827 4.26703 17.7416 4.00215 17.4442 4.00215Z" fill="white"/>
<path fill-rule="evenodd" clip-rule="evenodd" d="M33.9237 1.41489C35.1795 1.41494 36.3872 1.88052 37.2973 2.71539C37.3659 2.77985 37.4754 2.77903 37.5429 2.71357L38.198 2.07562C38.2322 2.04242 38.2513 1.99744 38.251 1.95065C38.2507 1.90385 38.2311 1.85909 38.1965 1.82628C35.8078 -0.382597 32.0392 -0.382597 29.6504 1.82628C29.6158 1.85907 29.5962 1.90381 29.5959 1.95061C29.5955 1.9974 29.6146 2.04239 29.6487 2.07562L30.304 2.71357C30.3715 2.77913 30.4811 2.77995 30.5496 2.71539C31.4598 1.88047 32.6678 1.41489 33.9237 1.41489ZM33.922 3.54578C34.6073 3.54574 35.2682 3.80413 35.7762 4.27074C35.8449 4.33696 35.9531 4.33552 36.0201 4.2675L36.6701 3.60136C36.7043 3.56642 36.7233 3.51902 36.7228 3.46976C36.7223 3.42051 36.7024 3.37351 36.6675 3.33928C35.1205 1.87964 32.7248 1.87964 31.1778 3.33928C31.1428 3.37351 31.1229 3.42053 31.1225 3.4698C31.122 3.51907 31.1411 3.56647 31.1754 3.60136L31.8251 4.2675C31.8921 4.33552 32.0004 4.33696 32.0691 4.27074C32.5767 3.80444 33.2371 3.54607 33.922 3.54578ZM35.1966 4.9563C35.1976 5.00949 35.1789 5.06078 35.1449 5.09804L34.0458 6.33748C34.0136 6.3739 33.9697 6.39441 33.9239 6.39441C33.878 6.39441 33.8341 6.3739 33.8019 6.33748L32.7027 5.09804C32.6687 5.06075 32.65 5.00945 32.651 4.95625C32.652 4.90306 32.6727 4.85269 32.708 4.81703C33.4099 4.15363 34.4379 4.15363 35.1397 4.81703C35.1751 4.85272 35.1956 4.90311 35.1966 4.9563Z" fill="white"/>
<rect opacity="0.35" x="42.2854" y="0.5" width="11.623" height="5.56393" rx="3.8" stroke="white"/>
<path opacity="0.4" d="M54.9133 2.41414V4.47192C55.3196 4.29764 55.5838 3.89221 55.5838 3.44303C55.5838 2.99385 55.3196 2.58842 54.9133 2.41414Z" fill="white"/>
<rect x="42.7953" y="1.00984" width="10.6033" height="4.54426" rx="2.5" fill="white"/>
</svg>
