<svg width="88" height="47" viewBox="0 0 88 47" fill="none" xmlns="http://www.w3.org/2000/svg">
<rect width="88" height="47" fill="#EFEFEF"/>
<g id="updated screens Phase 1">
<path d="M-678 -602C-678 -615.255 -667.255 -626 -654 -626H14271C14284.3 -626 14295 -615.255 14295 -602V2304C14295 2317.25 14284.3 2328 14271 2328H-654C-667.255 2328 -678 2317.25 -678 2304V-602Z" fill="#231D45"/>
<path d="M-654 -626V-625H14271V-626V-627H-654V-626ZM14295 -602H14294V2304H14295H14296V-602H14295ZM14271 2328V2327H-654V2328V2329H14271V2328ZM-678 2304H-677V-602H-678H-679V2304H-678ZM-654 2328V2327C-666.703 2327 -677 2316.7 -677 2304H-678H-679C-679 2317.81 -667.807 2329 -654 2329V2328ZM14295 2304H14294C14294 2316.7 14283.7 2327 14271 2327V2328V2329C14284.8 2329 14296 2317.81 14296 2304H14295ZM14271 -626V-625C14283.7 -625 14294 -614.703 14294 -602H14295H14296C14296 -615.807 14284.8 -627 14271 -627V-626ZM-654 -626V-627C-667.807 -627 -679 -615.807 -679 -602H-678H-677C-677 -614.703 -666.703 -625 -654 -625V-626Z" fill="black" fill-opacity="0.1"/>
<g id="Landing - 8" clip-path="url(#clip0_9157_26366)">
<rect width="430" height="932" transform="translate(-8 -93)" fill="url(#paint0_linear_9157_26366)"/>
<g id="Group 1000004381">
<g id="Frame 2072752052">
<g id="Frame 2072752216">
<g id="Frame 2072752224">
<g id="Frame 2072752050">
<g id="logo">
<path id="Vector" d="M57.5793 29.7428V31.805H53.6338L53.6117 29.8885C53.6117 26.659 52.1914 25.3233 49.7917 25.3233C47.3921 25.3233 45.9718 26.659 45.9718 29.8885V33.801H42.0534V29.7428C42.0534 24.7405 44.9432 21.9727 49.8169 21.9727C54.6905 21.9727 57.5803 24.7405 57.5803 29.7428H57.5793Z" fill="white"/>
<path id="Vector_2" d="M38.1168 22C42.9904 22 45.8802 24.7679 45.8802 29.7701V33.8283H41.9619V29.9158C41.9619 26.6863 40.5657 25.3506 38.1419 25.3506C35.7423 25.3506 34.3219 26.6863 34.3219 29.9158L34.3069 31.8323H30.3654L30.3553 29.7701C30.3553 24.7679 33.2452 22 38.1188 22H38.1168Z" fill="white"/>
<path id="Vector_3" d="M47.4988 33.7061C47.4988 31.7716 45.9178 30.2041 43.9672 30.2041C42.0165 30.2041 40.4355 31.7725 40.4355 33.7061C40.4355 34.8327 40.9739 35.8316 41.8066 36.4721L40.9829 41.5585H46.9524L46.1287 36.4721C46.9614 35.8316 47.4998 34.8318 47.4998 33.7061H47.4988Z" fill="white"/>
<path id="Vector_4" d="M46.7188 33.5646C46.7188 32.0576 45.4864 30.8354 43.9666 30.8354C42.4469 30.8354 41.2144 32.0576 41.2144 33.5646C41.2144 34.4424 41.6333 35.2209 42.2832 35.7195L41.6413 39.6821H46.293L45.6511 35.7195C46.3 35.22 46.7198 34.4415 46.7198 33.5646H46.7188Z" fill="white"/>
<path id="Vector_5" d="M69.1864 24.2456C69.1834 23.1615 68.2965 22.2827 67.2016 22.2827C66.1068 22.2827 65.2168 23.1644 65.2168 24.2513H65.2208V32.9901C65.2208 36.2196 63.8005 37.5553 61.4009 37.5553C59.0012 37.5553 57.5809 36.2196 57.5809 32.9901V31.8038H53.6314V33.1357C53.6314 38.138 56.5514 40.9059 61.425 40.9059C66.2986 40.9059 69.1874 38.138 69.1874 33.1357V24.2456H69.1854H69.1864Z" fill="#00A19A"/>
<path id="Vector_6" d="M18.7841 24.2456C18.7871 23.1615 19.674 22.2827 20.7689 22.2827C21.8647 22.2827 22.7537 23.1644 22.7537 24.2513H22.7496V32.9901C22.7496 36.2196 24.17 37.5553 26.5696 37.5553C28.9944 37.5553 30.3654 36.2196 30.3654 32.9901V31.8038H34.3079V33.1357C34.3079 38.138 31.4181 40.9059 26.5445 40.9059C21.6709 40.9059 18.782 38.138 18.782 33.1357V24.2456H18.7841Z" fill="#00A19A"/>
<path id="Vector_7" d="M68.0227 16.0364L45.2938 3.29334C44.9825 3.12212 44.6219 3.02658 44.2552 3.01807H44.198V3.15807L44.1588 3.01807H44.1046C43.7349 3.02753 43.3753 3.12307 43.0619 3.29523L27.2417 12.1646V10.6132C27.2417 9.59724 26.3076 8.77047 25.1605 8.77047C24.0134 8.77047 23.0793 9.59724 23.0793 10.6132V14.4992L20.3341 16.0383C19.3598 16.5747 19.0604 17.7136 19.6671 18.5763C20.2728 19.439 21.5595 19.7039 22.5348 19.1666L44.1789 7.03179L65.8239 19.1675C66.1584 19.352 66.5351 19.4466 66.9198 19.4466C67.0785 19.4466 67.2382 19.4305 67.3959 19.3984C67.9373 19.2867 68.3974 18.9954 68.6917 18.5773C69.2974 17.7145 68.998 16.5766 68.0247 16.0402L68.0227 16.0364Z" fill="#00A19A"/>
<path id="Vector_8" d="M42.8605 12.0117H39.8983C39.6326 12.0117 39.4172 12.2146 39.4172 12.4648V15.2545C39.4172 15.5047 39.6326 15.7076 39.8983 15.7076H42.8605C43.1262 15.7076 43.3416 15.5047 43.3416 15.2545V12.4648C43.3416 12.2146 43.1262 12.0117 42.8605 12.0117Z" fill="white"/>
<path id="Vector_9" d="M47.9813 12.0117H45.0192C44.7534 12.0117 44.538 12.2146 44.538 12.4648V15.2545C44.538 15.5047 44.7534 15.7076 45.0192 15.7076H47.9813C48.247 15.7076 48.4624 15.5047 48.4624 15.2545V12.4648C48.4624 12.2146 48.247 12.0117 47.9813 12.0117Z" fill="white"/>
<path id="Vector_10" d="M42.8605 16.6416H39.8983C39.6326 16.6416 39.4172 16.8445 39.4172 17.0947V19.8844C39.4172 20.1346 39.6326 20.3375 39.8983 20.3375H42.8605C43.1262 20.3375 43.3416 20.1346 43.3416 19.8844V17.0947C43.3416 16.8445 43.1262 16.6416 42.8605 16.6416Z" fill="white"/>
<path id="Vector_11" d="M47.9813 16.6416H45.0192C44.7534 16.6416 44.538 16.8445 44.538 17.0947V19.8844C44.538 20.1346 44.7534 20.3375 45.0192 20.3375H47.9813C48.247 20.3375 48.4624 20.1346 48.4624 19.8844V17.0947C48.4624 16.8445 48.247 16.6416 47.9813 16.6416Z" fill="white"/>
</g>
</g>
</g>
</g>
</g>
</g>
</g>
</g>
<defs>
<linearGradient id="paint0_linear_9157_26366" x1="215" y1="0" x2="215" y2="932" gradientUnits="userSpaceOnUse">
<stop stop-color="#231D45"/>
<stop offset="1" stop-color="#09F0E6"/>
</linearGradient>
<clipPath id="clip0_9157_26366">
<rect width="430" height="932" fill="white" transform="translate(-8 -93)"/>
</clipPath>
</defs>
</svg>
