<svg width="76" height="40" viewBox="0 0 76 40" fill="none" xmlns="http://www.w3.org/2000/svg">
<path d="M49.5676 25.3131V27.0681H46.2066L46.1877 25.4371C46.1877 22.6885 44.9779 21.5518 42.9337 21.5518C40.8896 21.5518 39.6797 22.6885 39.6797 25.4371V28.7669H36.3418V25.3131C36.3418 21.0558 38.8035 18.7002 42.9551 18.7002C47.1067 18.7002 49.5684 21.0558 49.5684 25.3131H49.5676Z" fill="white"/>
<path d="M32.9883 18.7231C37.1399 18.7231 39.6016 21.0788 39.6016 25.336V28.7898H36.2637V25.46C36.2637 22.7115 35.0744 21.5747 33.0097 21.5747C30.9656 21.5747 29.7557 22.7115 29.7557 25.46L29.7428 27.0911H26.3853L26.3767 25.336C26.3767 21.0788 28.8384 18.7231 32.99 18.7231H32.9883Z" fill="white"/>
<path d="M40.9804 28.686C40.9804 27.0396 39.6336 25.7056 37.972 25.7056C36.3103 25.7056 34.9635 27.0404 34.9635 28.686C34.9635 29.6448 35.4221 30.495 36.1315 31.04L35.4298 35.3689H40.5149L39.8133 31.04C40.5226 30.495 40.9813 29.644 40.9813 28.686H40.9804Z" fill="white"/>
<path d="M40.316 28.5653C40.316 27.2828 39.2661 26.2427 37.9716 26.2427C36.677 26.2427 35.6271 27.2828 35.6271 28.5653C35.6271 29.3124 35.9839 29.975 36.5375 30.3993L35.9907 33.7717H39.9532L39.4065 30.3993C39.9592 29.9742 40.3169 29.3116 40.3169 28.5653H40.316Z" fill="white"/>
<path d="M59.455 20.6344C59.4525 19.7118 58.6969 18.9639 57.7643 18.9639C56.8316 18.9639 56.0735 19.7142 56.0735 20.6392H56.0769V28.0765C56.0769 30.825 54.8671 31.9618 52.8229 31.9618C50.7788 31.9618 49.5689 30.825 49.5689 28.0765V27.0669H46.2045V28.2005C46.2045 32.4577 48.6918 34.8134 52.8434 34.8134C56.9951 34.8134 59.4559 32.4577 59.4559 28.2005V20.6344H59.4542H59.455Z" fill="#00A19A"/>
<path d="M16.5197 20.6344C16.5222 19.7118 17.2778 18.9639 18.2104 18.9639C19.1439 18.9639 19.9012 19.7142 19.9012 20.6392H19.8978V28.0765C19.8978 30.825 21.1076 31.9618 23.1518 31.9618C25.2173 31.9618 26.3853 30.825 26.3853 28.0765V27.0669H29.7437V28.2005C29.7437 32.4577 27.282 34.8134 23.1304 34.8134C18.9788 34.8134 16.5179 32.4577 16.5179 28.2005V20.6344H16.5197Z" fill="#00A19A"/>
<path d="M58.4638 13.6478L39.1021 2.80264C38.8369 2.65692 38.5297 2.57561 38.2174 2.56836H38.1686V2.68751L38.1353 2.56836H38.0891C37.7742 2.57641 37.4679 2.65772 37.2009 2.80425L23.7244 10.3526V9.0323C23.7244 8.16765 22.9287 7.46402 21.9515 7.46402C20.9744 7.46402 20.1786 8.16765 20.1786 9.0323V12.3395L17.8401 13.6494C17.0101 14.1059 16.7552 15.0752 17.272 15.8094C17.7879 16.5436 18.884 16.7691 19.7149 16.3118L38.1524 5.98429L56.5907 16.3126C56.8757 16.4696 57.1965 16.5501 57.5243 16.5501C57.6595 16.5501 57.7955 16.5364 57.9298 16.509C58.391 16.414 58.7829 16.1661 59.0336 15.8102C59.5496 15.076 59.2946 14.1075 58.4655 13.651L58.4638 13.6478Z" fill="#00A19A"/>
<path d="M37.0292 10.2227H34.5059C34.2796 10.2227 34.0961 10.3953 34.0961 10.6083V12.9825C34.0961 13.1954 34.2796 13.3681 34.5059 13.3681H37.0292C37.2556 13.3681 37.4391 13.1954 37.4391 12.9825V10.6083C37.4391 10.3953 37.2556 10.2227 37.0292 10.2227Z" fill="white"/>
<path d="M41.3914 10.2227H38.8681C38.6417 10.2227 38.4583 10.3953 38.4583 10.6083V12.9825C38.4583 13.1954 38.6417 13.3681 38.8681 13.3681H41.3914C41.6178 13.3681 41.8013 13.1954 41.8013 12.9825V10.6083C41.8013 10.3953 41.6178 10.2227 41.3914 10.2227Z" fill="white"/>
<path d="M37.0292 14.1631H34.5059C34.2796 14.1631 34.0961 14.3357 34.0961 14.5487V16.9229C34.0961 17.1359 34.2796 17.3085 34.5059 17.3085H37.0292C37.2556 17.3085 37.4391 17.1359 37.4391 16.9229V14.5487C37.4391 14.3357 37.2556 14.1631 37.0292 14.1631Z" fill="white"/>
<path d="M41.3914 14.1631H38.8681C38.6417 14.1631 38.4583 14.3357 38.4583 14.5487V16.9229C38.4583 17.1359 38.6417 17.3085 38.8681 17.3085H41.3914C41.6178 17.3085 41.8013 17.1359 41.8013 16.9229V14.5487C41.8013 14.3357 41.6178 14.1631 41.3914 14.1631Z" fill="white"/>
</svg>
