<svg width="16" height="15" viewBox="0 0 16 15" fill="none" xmlns="http://www.w3.org/2000/svg">
<path d="M0.888672 3.95312C0.888672 3.74186 0.937012 3.55387 1.03369 3.38916C1.13037 3.22445 1.26107 3.09554 1.42578 3.00244C1.59049 2.90576 1.7749 2.85742 1.979 2.85742H14.021C14.2251 2.85742 14.4095 2.90576 14.5742 3.00244C14.7389 3.09554 14.8696 3.22445 14.9663 3.38916C15.063 3.55387 15.1113 3.74186 15.1113 3.95312C15.1113 4.15723 15.063 4.34342 14.9663 4.51172C14.8696 4.67643 14.7389 4.80713 14.5742 4.90381C14.4095 4.99691 14.2251 5.04346 14.021 5.04346H1.979C1.7749 5.04346 1.59049 4.99691 1.42578 4.90381C1.26107 4.80713 1.13037 4.67643 1.03369 4.51172C0.937012 4.34342 0.888672 4.15723 0.888672 3.95312ZM1.74268 3.95312C1.74268 4.02474 1.76774 4.08561 1.81787 4.13574C1.87158 4.18229 1.93783 4.20557 2.0166 4.20557H13.9834C14.0622 4.20557 14.1266 4.18229 14.1768 4.13574C14.2305 4.08561 14.2573 4.02474 14.2573 3.95312C14.2573 3.87793 14.2305 3.81706 14.1768 3.77051C14.1266 3.72038 14.0622 3.69531 13.9834 3.69531H2.0166C1.93783 3.69531 1.87158 3.72038 1.81787 3.77051C1.76774 3.81706 1.74268 3.87793 1.74268 3.95312ZM4.90088 10.103C3.88753 10.103 3.12126 9.85775 2.60205 9.36719C2.08643 8.87663 1.82861 8.15153 1.82861 7.19189V4.64062H2.69336V7.19189C2.69336 7.86865 2.87956 8.37891 3.25195 8.72266C3.62435 9.06641 4.17399 9.23828 4.90088 9.23828H11.1045C11.8278 9.23828 12.3757 9.06641 12.748 8.72266C13.1204 8.37891 13.3066 7.86865 13.3066 7.19189V4.64062H14.1714V7.19189C14.1714 8.15153 13.9118 8.87663 13.3926 9.36719C12.877 9.85775 12.1143 10.103 11.1045 10.103H4.90088ZM3.40234 11.3008C3.29134 11.2614 3.21077 11.1862 3.16064 11.0752C3.11051 10.9678 3.10514 10.8586 3.14453 10.7476L3.60107 9.48535L4.41211 9.78076L3.95557 11.043C3.91618 11.154 3.84098 11.2345 3.72998 11.2847C3.62256 11.3384 3.51335 11.3438 3.40234 11.3008ZM12.603 11.3008C12.4884 11.3438 12.3757 11.3384 12.2646 11.2847C12.1572 11.2345 12.0838 11.154 12.0444 11.043L11.5879 9.78076L12.3989 9.48535L12.8555 10.7476C12.8949 10.8586 12.8895 10.9678 12.8394 11.0752C12.7892 11.1862 12.7104 11.2614 12.603 11.3008Z" fill="#00A19A"/>
</svg>
