<svg width="14" height="10" viewBox="0 0 14 10" fill="none" xmlns="http://www.w3.org/2000/svg">
<path d="M0.456055 9.06104C0.316406 9.06104 0.205404 9.01986 0.123047 8.9375C0.0406901 8.85514 -0.000488281 8.74414 -0.000488281 8.60449V4.92529C-0.000488281 4.41325 0.135579 4.02295 0.407715 3.75439C0.67985 3.48226 1.07194 3.34619 1.58398 3.34619H12.0254C12.541 3.34619 12.9331 3.48226 13.2017 3.75439C13.4738 4.02295 13.6099 4.41325 13.6099 4.92529V8.60449C13.6099 8.74414 13.5687 8.85514 13.4863 8.9375C13.404 9.01986 13.293 9.06104 13.1533 9.06104H12.8311C12.695 9.06104 12.584 9.01986 12.498 8.9375C12.4157 8.85514 12.3745 8.74414 12.3745 8.60449V7.80957C12.3459 7.81673 12.2939 7.82389 12.2188 7.83105C12.1436 7.83464 12.0737 7.83643 12.0093 7.83643H1.6001C1.53564 7.83643 1.46582 7.83464 1.39062 7.83105C1.31901 7.82389 1.26709 7.81673 1.23486 7.80957V8.60449C1.23486 8.74414 1.19189 8.85514 1.10596 8.9375C1.0236 9.01986 0.914388 9.06104 0.77832 9.06104H0.456055ZM1.07373 7.05225H12.5356C12.6574 7.05225 12.7183 6.98242 12.7183 6.84277V4.80176C12.7183 4.59766 12.6556 4.43473 12.5303 4.31299C12.4085 4.19124 12.2438 4.13037 12.0361 4.13037H1.57861C1.37093 4.13037 1.20443 4.19124 1.0791 4.31299C0.953776 4.43473 0.891113 4.59766 0.891113 4.80176V6.84277C0.891113 6.98242 0.951986 7.05225 1.07373 7.05225ZM1.396 3.45898V1.50391C1.396 1.00618 1.5249 0.631999 1.78271 0.381348C2.04411 0.127116 2.41471 0 2.89453 0H10.7148C11.1982 0 11.5688 0.127116 11.8267 0.381348C12.0845 0.631999 12.2134 1.00618 12.2134 1.50391V3.45898H10.8008V2.35254C10.8008 2.10547 10.7327 1.91569 10.5967 1.7832C10.4606 1.64714 10.2655 1.5791 10.0112 1.5791H8.12598C7.87533 1.5791 7.68197 1.64714 7.5459 1.7832C7.40983 1.91569 7.3418 2.10547 7.3418 2.35254V3.45898H6.26758V2.35254C6.26758 2.10547 6.19954 1.91569 6.06348 1.7832C5.92741 1.64714 5.73405 1.5791 5.4834 1.5791H3.59814C3.34391 1.5791 3.14876 1.64714 3.0127 1.7832C2.87663 1.91569 2.80859 2.10547 2.80859 2.35254V3.45898H1.396Z" fill="#00A19A"/>
</svg>
