<svg width="15" height="16" viewBox="0 0 15 16" fill="none" xmlns="http://www.w3.org/2000/svg">
<path d="M14.9189 5.1416C14.9189 5.94727 14.7773 6.68213 14.4941 7.34619C14.2109 8.01025 13.8301 8.54004 13.3516 8.93555C12.8779 9.33105 12.3506 9.52881 11.7695 9.52881H10.4292C10.0093 10.0366 9.62842 10.5151 9.28662 10.9644C8.94482 11.4136 8.62988 11.8457 8.3418 12.2607C8.05859 12.6709 7.79492 13.0737 7.55078 13.4692C7.31152 13.8696 7.08447 14.2773 6.86963 14.6924C6.64014 15.1318 6.39844 15.4468 6.14453 15.6372C5.89551 15.8325 5.59766 15.9302 5.25098 15.9302C4.93359 15.9302 4.65283 15.8569 4.40869 15.7104C4.16455 15.5688 3.97168 15.3687 3.83008 15.1099C3.68848 14.856 3.61768 14.5654 3.61768 14.2383C3.61768 13.8818 3.67871 13.5107 3.80078 13.125C3.92285 12.7344 4.06201 12.3584 4.21826 11.9971C4.37939 11.6309 4.51855 11.2964 4.63574 10.9937C4.75781 10.6909 4.81885 10.4443 4.81885 10.2539C4.81885 10.1855 4.79443 10.1343 4.74561 10.1001C4.69678 10.061 4.6333 10.0415 4.55518 10.0415H1.88184C1.53027 10.0415 1.21045 9.9585 0.922363 9.79248C0.63916 9.62158 0.414551 9.39453 0.248535 9.11133C0.0825195 8.82324 -0.000488281 8.50098 -0.000488281 8.14453C-0.000488281 7.70996 0.104492 7.34131 0.314453 7.03857C0.246094 6.91162 0.189941 6.76514 0.145996 6.59912C0.106934 6.42822 0.0874023 6.26221 0.0874023 6.10107C0.0874023 5.84229 0.131348 5.5957 0.219238 5.36133C0.312012 5.12695 0.441406 4.92676 0.607422 4.76074C0.5 4.52637 0.446289 4.26025 0.446289 3.9624C0.446289 3.35205 0.697754 2.854 1.20068 2.46826C1.17627 2.39014 1.15674 2.30957 1.14209 2.22656C1.13232 2.14355 1.12744 2.05811 1.12744 1.97021C1.12744 1.53564 1.26904 1.15967 1.55225 0.842285C1.84033 0.52002 2.23096 0.300293 2.72412 0.183105C2.97803 0.119629 3.28809 0.0732422 3.6543 0.0439453C4.02539 0.0146484 4.43066 0 4.87012 0H5.85156C6.48145 0 7.07471 0.0708008 7.63135 0.212402C8.18799 0.349121 8.70068 0.539551 9.16943 0.783691H11.5059C11.9746 0.783691 12.4141 0.898438 12.8242 1.12793C13.2344 1.35742 13.5957 1.67236 13.9082 2.07275C14.2256 2.47314 14.4722 2.93701 14.6479 3.46436C14.8286 3.9917 14.9189 4.55078 14.9189 5.1416ZM10.7954 5.17822C10.7954 4.38232 10.5854 3.67676 10.1655 3.06152C9.75049 2.44629 9.16455 1.96289 8.40771 1.61133C7.65576 1.25977 6.77686 1.08154 5.771 1.07666H4.86279C4.4624 1.07666 4.09863 1.08887 3.77148 1.11328C3.44922 1.1377 3.18311 1.17676 2.97314 1.23047C2.71924 1.29883 2.52881 1.39648 2.40186 1.52344C2.27979 1.65039 2.21875 1.79932 2.21875 1.97021C2.21875 2.05811 2.22852 2.14111 2.24805 2.21924C2.27246 2.29248 2.32617 2.43652 2.40918 2.65137C2.44824 2.72949 2.45557 2.80273 2.43115 2.87109C2.41162 2.93457 2.36279 2.98828 2.28467 3.03223C1.78174 3.2959 1.53027 3.60596 1.53027 3.9624C1.53027 4.08936 1.55225 4.2041 1.59619 4.30664C1.64014 4.4043 1.70605 4.53613 1.79395 4.70215C1.84766 4.80957 1.85986 4.90967 1.83057 5.00244C1.80127 5.09521 1.74268 5.17334 1.65479 5.23682C1.49365 5.36377 1.37158 5.49805 1.28857 5.63965C1.21045 5.78125 1.17139 5.93506 1.17139 6.10107C1.17139 6.23779 1.19824 6.36719 1.25195 6.48926C1.30566 6.60645 1.38867 6.75049 1.50098 6.92139C1.55469 6.98975 1.5791 7.06055 1.57422 7.13379C1.56934 7.20215 1.53271 7.26562 1.46436 7.32422C1.32764 7.46094 1.22998 7.59033 1.17139 7.7124C1.11279 7.83447 1.0835 7.97852 1.0835 8.14453C1.0835 8.37891 1.15918 8.57422 1.31055 8.73047C1.46191 8.88184 1.65234 8.95752 1.88184 8.95752H4.40137C4.82129 8.95752 5.17529 9.07471 5.46338 9.30908C5.75635 9.53857 5.90283 9.85352 5.90283 10.2539C5.90283 10.5322 5.8418 10.8423 5.71973 11.1841C5.60254 11.521 5.46338 11.8701 5.30225 12.2314C5.146 12.5928 5.00684 12.9443 4.88477 13.2861C4.7627 13.6328 4.70166 13.9502 4.70166 14.2383C4.70166 14.4336 4.74805 14.5825 4.84082 14.6851C4.93848 14.7925 5.06055 14.8462 5.20703 14.8462C5.33398 14.8462 5.44873 14.8022 5.55127 14.7144C5.65381 14.6313 5.771 14.458 5.90283 14.1943C6.25439 13.4912 6.64014 12.832 7.06006 12.2168C7.48486 11.5967 7.90723 11.0181 8.32715 10.481C8.75195 9.94385 9.14258 9.43848 9.49902 8.96484C9.81641 8.53516 10.0703 8.12988 10.2607 7.74902C10.4512 7.36816 10.5879 6.97266 10.6709 6.5625C10.7539 6.15234 10.7954 5.69092 10.7954 5.17822ZM13.835 5.1416C13.835 4.55078 13.7251 4.00879 13.5054 3.51562C13.2905 3.01758 13.0049 2.61963 12.6484 2.32178C12.2969 2.02393 11.916 1.875 11.5059 1.875C11.3496 1.875 11.1934 1.875 11.0371 1.875C10.8809 1.875 10.7246 1.875 10.5684 1.875C10.9883 2.30957 11.3105 2.81006 11.5352 3.37646C11.7646 3.93799 11.8794 4.5459 11.8794 5.2002C11.8794 5.81543 11.8184 6.38672 11.6963 6.91406C11.5791 7.44141 11.3911 7.95166 11.1323 8.44482C11.2397 8.44482 11.3447 8.44482 11.4473 8.44482C11.5547 8.44482 11.6621 8.44482 11.7695 8.44482C12.1309 8.44482 12.4678 8.2959 12.7803 7.99805C13.0977 7.7002 13.3516 7.30225 13.542 6.8042C13.7373 6.30127 13.835 5.74707 13.835 5.1416Z" fill="#00A19A"/>
</svg>
