<svg width="15" height="14" viewBox="0 0 15 14" fill="none" xmlns="http://www.w3.org/2000/svg">
<path d="M0.161621 8.90625C0.0541992 8.79395 0.000488281 8.66455 0.000488281 8.51807C0.000488281 8.3667 0.0541992 8.23486 0.161621 8.12256L1.45801 6.8335C2.7373 5.5542 3.84082 4.47266 4.76855 3.58887C5.69629 2.7002 6.4873 1.98975 7.1416 1.45752C7.80078 0.925293 8.35986 0.549316 8.81885 0.32959C9.28271 0.109863 9.68311 0.0292969 10.02 0.0878906C10.3569 0.146484 10.6719 0.322266 10.9648 0.615234C11.2627 0.913086 11.4189 1.24756 11.4336 1.61865C11.4531 1.98975 11.3408 2.41943 11.0967 2.90771C10.8525 3.39111 10.4863 3.95264 9.99805 4.59229C9.50977 5.22705 8.90918 5.95459 8.19629 6.7749C7.34668 7.75146 6.6875 8.55713 6.21875 9.19189C5.75488 9.82666 5.46436 10.332 5.34717 10.708C5.22998 11.0791 5.26904 11.3574 5.46436 11.543C5.62061 11.6992 5.84766 11.7334 6.14551 11.6455C6.44336 11.5527 6.83887 11.3159 7.33203 10.9351C7.8252 10.5493 8.4502 10 9.20703 9.28711C9.97363 8.55469 10.645 7.97852 11.2212 7.55859C11.7974 7.13867 12.2954 6.89209 12.7153 6.81885C13.1353 6.74561 13.499 6.86523 13.8066 7.17773C14.0312 7.40234 14.146 7.66602 14.1509 7.96875C14.1606 8.2666 14.0752 8.61816 13.8945 9.02344C13.7188 9.42383 13.4648 9.89502 13.1328 10.437C12.874 10.8667 12.6665 11.2109 12.5103 11.4697C12.3589 11.7285 12.2612 11.9263 12.2173 12.063C12.1782 12.1997 12.1929 12.3022 12.2612 12.3706C12.3198 12.4292 12.4126 12.4341 12.5396 12.3853C12.6714 12.3364 12.8496 12.2241 13.0742 12.0483C13.3037 11.8677 13.5967 11.6138 13.9531 11.2866C14.0654 11.1743 14.1948 11.1182 14.3413 11.1182C14.4927 11.1182 14.6245 11.1719 14.7368 11.2793C14.8491 11.3916 14.9028 11.5259 14.8979 11.6821C14.8931 11.8335 14.8198 11.9775 14.6782 12.1143C13.9946 12.8174 13.3843 13.2617 12.8472 13.4473C12.3149 13.6377 11.8853 13.5693 11.5581 13.2422C11.3481 13.0322 11.2334 12.7954 11.2139 12.5317C11.1992 12.2681 11.2456 11.9897 11.353 11.6968C11.4604 11.4038 11.6021 11.1035 11.7778 10.7959C11.9536 10.4834 12.1294 10.1758 12.3052 9.87305C12.5835 9.39453 12.8105 8.99414 12.9863 8.67188C13.1621 8.34473 13.167 8.09814 13.001 7.93213C12.9033 7.83936 12.7617 7.83203 12.5762 7.91016C12.3906 7.9834 12.166 8.125 11.9023 8.33496C11.6436 8.54004 11.353 8.79395 11.0308 9.09668C10.7134 9.39941 10.3691 9.729 9.99805 10.0854C9.6123 10.4614 9.22168 10.8203 8.82617 11.1621C8.43066 11.5039 8.04004 11.8042 7.6543 12.063C7.27344 12.3169 6.90479 12.5098 6.54834 12.6416C6.19189 12.7734 5.85498 12.8174 5.5376 12.7734C5.2251 12.7344 4.93945 12.5854 4.68066 12.3267C4.38281 12.0288 4.21924 11.6968 4.18994 11.3306C4.16553 10.9595 4.23877 10.5664 4.40967 10.1514C4.58545 9.73145 4.82715 9.29688 5.13477 8.84766C5.44727 8.39355 5.79639 7.93213 6.18213 7.46338C6.57275 6.99463 6.96826 6.52588 7.36865 6.05713C7.84229 5.49561 8.28418 4.96826 8.69434 4.4751C9.10449 3.97705 9.44873 3.52539 9.72705 3.12012C10.0054 2.71484 10.1909 2.36572 10.2837 2.07275C10.3765 1.77979 10.3447 1.55518 10.1885 1.39893C10.0078 1.21826 9.75879 1.17432 9.44141 1.26709C9.12891 1.35986 8.74561 1.57227 8.2915 1.9043C7.8374 2.23633 7.3125 2.67822 6.7168 3.22998C6.12109 3.77686 5.44971 4.42139 4.70264 5.16357C3.95557 5.90088 3.13281 6.71875 2.23438 7.61719L0.945312 8.90625C0.833008 9.01855 0.701172 9.07471 0.549805 9.07471C0.40332 9.07471 0.273926 9.01855 0.161621 8.90625Z" fill="#00A19A"/>
</svg>
