<svg width="15" height="16" viewBox="0 0 15 16" fill="none" xmlns="http://www.w3.org/2000/svg">
<path d="M-0.000488281 10.7886C-0.000488281 9.98291 0.141113 9.24805 0.424316 8.58398C0.70752 7.91992 1.08594 7.39014 1.55957 6.99463C2.03809 6.59912 2.56787 6.40137 3.14893 6.40137H4.48926C4.90918 5.88867 5.29004 5.41016 5.63184 4.96582C5.97363 4.5166 6.28613 4.08691 6.56934 3.67676C6.85742 3.26172 7.12109 2.854 7.36035 2.45361C7.59961 2.05322 7.82666 1.64795 8.0415 1.23779C8.271 0.79834 8.5127 0.483398 8.7666 0.292969C9.02051 0.0976562 9.3208 0 9.66748 0C9.98486 0 10.2656 0.0732422 10.5098 0.219727C10.7539 0.361328 10.9468 0.559082 11.0884 0.812988C11.23 1.06689 11.3008 1.35986 11.3008 1.69189C11.3008 2.04834 11.2397 2.41943 11.1177 2.80518C10.9956 3.19092 10.854 3.56689 10.6929 3.93311C10.5366 4.29932 10.3975 4.63379 10.2754 4.93652C10.1582 5.23926 10.0996 5.48584 10.0996 5.67627C10.0996 5.74463 10.124 5.79834 10.1729 5.8374C10.2217 5.87158 10.2852 5.88867 10.3633 5.88867H13.0366C13.3882 5.88867 13.7056 5.97412 13.9888 6.14502C14.272 6.31104 14.4966 6.53809 14.6626 6.82617C14.8335 7.10938 14.9189 7.42676 14.9189 7.77832C14.9189 8.21289 14.814 8.58398 14.604 8.8916C14.6724 9.01855 14.7261 9.16504 14.7651 9.33105C14.8042 9.49707 14.8237 9.66309 14.8237 9.8291C14.8237 10.0879 14.7798 10.3345 14.6919 10.5688C14.604 10.7983 14.4771 10.9985 14.311 11.1694C14.4185 11.4038 14.4722 11.6699 14.4722 11.9678C14.4722 12.5781 14.2207 13.0737 13.7178 13.4546C13.7422 13.5376 13.7593 13.6206 13.769 13.7036C13.7837 13.7866 13.791 13.8721 13.791 13.96C13.791 14.3896 13.647 14.7656 13.3589 15.0879C13.0757 15.4102 12.6875 15.6299 12.1943 15.7471C11.9404 15.8105 11.6279 15.8545 11.2568 15.8789C10.8906 15.9082 10.4878 15.9229 10.0483 15.9229H9.06689C8.43701 15.9229 7.84131 15.8545 7.27979 15.7178C6.72314 15.5811 6.21289 15.3906 5.74902 15.1465H3.4126C2.94385 15.1465 2.50439 15.0317 2.09424 14.8022C1.68408 14.5728 1.32031 14.2554 1.00293 13.8501C0.69043 13.4497 0.443848 12.9883 0.263184 12.4658C0.0874023 11.9385 -0.000488281 11.3794 -0.000488281 10.7886ZM4.12305 10.752C4.12305 11.543 4.33057 12.2485 4.74561 12.8687C5.16553 13.4839 5.75146 13.9673 6.50342 14.3188C7.26025 14.6704 8.1416 14.8462 9.14746 14.8462H10.0557C10.4561 14.8462 10.8174 14.834 11.1396 14.8096C11.4668 14.79 11.7329 14.7534 11.938 14.6997C12.1968 14.6313 12.3872 14.5337 12.5093 14.4067C12.6362 14.2798 12.6997 14.1309 12.6997 13.96C12.6997 13.8672 12.6875 13.7842 12.6631 13.7109C12.6436 13.6377 12.5898 13.4912 12.502 13.2715C12.4678 13.1934 12.4604 13.1226 12.48 13.0591C12.5044 12.9956 12.5557 12.9395 12.6338 12.8906C13.1367 12.6318 13.3882 12.3242 13.3882 11.9678C13.3882 11.8408 13.3662 11.7285 13.3223 11.6309C13.2783 11.5283 13.21 11.394 13.1172 11.228C13.0684 11.1157 13.0586 11.0156 13.0879 10.9277C13.1172 10.835 13.1758 10.7544 13.2637 10.686C13.4248 10.564 13.5444 10.4321 13.6226 10.2905C13.7007 10.1489 13.7397 9.99512 13.7397 9.8291C13.7397 9.6875 13.7129 9.55811 13.6592 9.44092C13.6104 9.31885 13.5298 9.1748 13.4175 9.00879C13.3638 8.94043 13.3394 8.87207 13.3442 8.80371C13.3491 8.73047 13.3857 8.66455 13.4541 8.60596C13.5908 8.46924 13.6885 8.33984 13.7471 8.21777C13.8057 8.0957 13.835 7.94922 13.835 7.77832C13.835 7.54883 13.7568 7.3584 13.6006 7.20703C13.4492 7.05078 13.2612 6.97266 13.0366 6.97266H10.5171C10.0972 6.97266 9.74072 6.85791 9.44775 6.62842C9.15967 6.39404 9.01562 6.07666 9.01562 5.67627C9.01562 5.39795 9.07422 5.09033 9.19141 4.75342C9.31348 4.41162 9.45264 4.06006 9.60889 3.69873C9.77002 3.3374 9.91162 2.9834 10.0337 2.63672C10.1558 2.29004 10.2168 1.9751 10.2168 1.69189C10.2168 1.49658 10.168 1.34766 10.0703 1.24512C9.97754 1.1377 9.85791 1.08398 9.71143 1.08398C9.57959 1.08398 9.4624 1.12549 9.35986 1.2085C9.26221 1.2915 9.14746 1.46729 9.01562 1.73584C8.66406 2.43896 8.27588 3.09814 7.85107 3.71338C7.43115 4.32861 7.00879 4.90723 6.58398 5.44922C6.16406 5.98633 5.77588 6.4917 5.41943 6.96533C5.10205 7.39502 4.84814 7.80029 4.65771 8.18115C4.46729 8.56201 4.33057 8.95752 4.24756 9.36768C4.16455 9.77783 4.12305 10.2393 4.12305 10.752ZM1.0835 10.7886C1.0835 11.3794 1.19092 11.9238 1.40576 12.4219C1.62549 12.915 1.91113 13.3105 2.2627 13.6084C2.61426 13.9062 2.99756 14.0552 3.4126 14.0552C3.56885 14.0552 3.7251 14.0552 3.88135 14.0552C4.0376 14.0552 4.19385 14.0552 4.3501 14.0552C3.93018 13.6157 3.60547 13.1152 3.37598 12.5537C3.15137 11.9922 3.03906 11.3843 3.03906 10.73C3.03906 10.1099 3.09766 9.53857 3.21484 9.01611C3.33691 8.48877 3.52734 7.97852 3.78613 7.48535C3.67871 7.48535 3.57129 7.48535 3.46387 7.48535C3.35645 7.48535 3.25146 7.48535 3.14893 7.48535C2.7876 7.48535 2.44824 7.63428 2.13086 7.93213C1.81836 8.22998 1.56445 8.62793 1.36914 9.12598C1.17871 9.62402 1.0835 10.1782 1.0835 10.7886Z" fill="#00A19A"/>
</svg>
