<svg width="17" height="17" viewBox="0 0 17 17" fill="none" xmlns="http://www.w3.org/2000/svg">
<path d="M3.88184 14.6704C3.22754 14.6704 2.74414 14.5142 2.43164 14.2017C2.11914 13.8892 1.96289 13.4058 1.96289 12.7515V11.1694C1.96289 11.0229 1.91406 10.8984 1.81641 10.7959L0.695801 9.66797C0.231934 9.20898 0 8.75977 0 8.32031C0 7.88086 0.231934 7.4292 0.695801 6.96533L1.81641 5.8374C1.91406 5.73486 1.96289 5.61279 1.96289 5.47119V3.88184C1.96289 3.22266 2.11914 2.73926 2.43164 2.43164C2.74414 2.11914 3.22754 1.96289 3.88184 1.96289H5.46387C5.61523 1.96289 5.73975 1.91406 5.8374 1.81641L6.96533 0.695801C7.4292 0.231934 7.87842 0 8.31299 0C8.75244 0 9.2041 0.231934 9.66797 0.695801L10.7959 1.81641C10.8984 1.91406 11.0229 1.96289 11.1694 1.96289H12.7515C13.4106 1.96289 13.894 2.12158 14.2017 2.43896C14.5142 2.75146 14.6704 3.23242 14.6704 3.88184V5.47119C14.6704 5.61279 14.7217 5.73486 14.8242 5.8374L15.9375 6.96533C16.4014 7.4292 16.6333 7.88086 16.6333 8.32031C16.6382 8.75977 16.4062 9.20898 15.9375 9.66797L14.8242 10.7959C14.7217 10.8984 14.6704 11.0229 14.6704 11.1694V12.7515C14.6704 13.4106 14.5142 13.894 14.2017 14.2017C13.8892 14.5142 13.4058 14.6704 12.7515 14.6704H11.1694C11.0229 14.6704 10.8984 14.7217 10.7959 14.8242L9.66797 15.9448C9.2041 16.4038 8.75244 16.6333 8.31299 16.6333C7.87842 16.6382 7.4292 16.4087 6.96533 15.9448L5.8374 14.8242C5.73975 14.7217 5.61523 14.6704 5.46387 14.6704H3.88184ZM3.88184 13.5059H5.85205C6.07666 13.5059 6.26221 13.584 6.40869 13.7402L7.78564 15.1245C8.02002 15.354 8.1958 15.4688 8.31299 15.4688C8.43506 15.4688 8.61328 15.354 8.84766 15.1245L10.2319 13.7402C10.3784 13.584 10.5615 13.5059 10.7812 13.5059H12.7515C13.0786 13.5059 13.2861 13.4619 13.374 13.374C13.4619 13.2861 13.5059 13.0786 13.5059 12.7515V10.7812C13.5059 10.5664 13.584 10.3833 13.7402 10.2319L15.1245 8.85498C15.354 8.62061 15.4688 8.44238 15.4688 8.32031C15.4688 8.19824 15.354 8.02002 15.1245 7.78564L13.7402 6.40869C13.584 6.25244 13.5059 6.06689 13.5059 5.85205V3.88184C13.5059 3.55957 13.4619 3.35449 13.374 3.2666C13.2861 3.17383 13.0786 3.12744 12.7515 3.12744H10.7812C10.5615 3.12744 10.3784 3.05176 10.2319 2.90039L8.84766 1.51611C8.61328 1.28662 8.43506 1.17188 8.31299 1.17188C8.1958 1.17188 8.02002 1.28662 7.78564 1.51611L6.40869 2.90039C6.26221 3.05176 6.07666 3.12744 5.85205 3.12744H3.88184C3.5498 3.12744 3.33984 3.17139 3.25195 3.25928C3.16895 3.34717 3.12744 3.55469 3.12744 3.88184V5.85205C3.12744 6.06689 3.05176 6.25244 2.90039 6.40869L1.51611 7.78564C1.28174 8.02002 1.16455 8.19824 1.16455 8.32031C1.16455 8.44238 1.28174 8.62061 1.51611 8.85498L2.90039 10.2319C3.05176 10.3833 3.12744 10.5664 3.12744 10.7812V12.7515C3.12744 13.0786 3.17139 13.2861 3.25928 13.374C3.34717 13.4619 3.55469 13.5059 3.88184 13.5059ZM7.52197 11.792C7.3999 11.792 7.2876 11.7651 7.18506 11.7114C7.0874 11.6577 6.99219 11.5723 6.89941 11.4551L5.1123 9.25781C5 9.10645 4.94385 8.95508 4.94385 8.80371C4.94385 8.64258 4.99756 8.50586 5.10498 8.39355C5.21729 8.27637 5.35156 8.21777 5.50781 8.21777C5.61035 8.21777 5.70312 8.23975 5.78613 8.28369C5.87402 8.32275 5.96191 8.40088 6.0498 8.51807L7.49268 10.3857L10.5322 5.50781C10.6689 5.28809 10.8398 5.17822 11.0449 5.17822C11.1963 5.17822 11.333 5.22705 11.4551 5.32471C11.5771 5.42236 11.6382 5.55176 11.6382 5.71289C11.6382 5.7959 11.6187 5.87891 11.5796 5.96191C11.5454 6.04004 11.5063 6.11328 11.4624 6.18164L8.11523 11.4551C7.96875 11.6797 7.771 11.792 7.52197 11.792Z" fill="#00A19A"/>
</svg>
