<svg width="16" height="16" viewBox="0 0 16 16" fill="none" xmlns="http://www.w3.org/2000/svg">
<path d="M8.98682 0C9.09424 0 9.18701 0.0366211 9.26514 0.109863C9.34326 0.178223 9.38965 0.268555 9.4043 0.380859C9.52637 1.30859 9.66064 2.09229 9.80713 2.73193C9.9585 3.3667 10.1562 3.8916 10.4004 4.30664C10.6494 4.7168 10.9766 5.04639 11.3818 5.29541C11.7871 5.53955 12.3022 5.73242 12.9272 5.87402C13.5571 6.01562 14.3311 6.1377 15.249 6.24023C15.3662 6.25 15.4614 6.29395 15.5347 6.37207C15.6079 6.4502 15.6445 6.54297 15.6445 6.65039C15.6445 6.7627 15.6079 6.85791 15.5347 6.93604C15.4614 7.01416 15.3662 7.06055 15.249 7.0752C14.3311 7.17285 13.5571 7.29248 12.9272 7.43408C12.3022 7.57568 11.7871 7.771 11.3818 8.02002C10.9766 8.26416 10.6494 8.59375 10.4004 9.00879C10.1562 9.41895 9.9585 9.94385 9.80713 10.5835C9.66064 11.2183 9.52637 11.9971 9.4043 12.9199C9.38965 13.0371 9.34326 13.1299 9.26514 13.1982C9.18701 13.2715 9.09424 13.3081 8.98682 13.3081C8.87939 13.3081 8.78662 13.2715 8.7085 13.1982C8.63525 13.1299 8.59131 13.0371 8.57666 12.9199C8.45459 11.9971 8.31787 11.2183 8.1665 10.5835C8.02002 9.94385 7.82227 9.41895 7.57324 9.00879C7.3291 8.59375 7.00439 8.26416 6.59912 8.02002C6.19385 7.771 5.67627 7.57568 5.04639 7.43408C4.42139 7.29248 3.6499 7.17285 2.73193 7.0752C2.61475 7.06055 2.51709 7.01416 2.43896 6.93604C2.36572 6.85791 2.3291 6.7627 2.3291 6.65039C2.3291 6.54297 2.36572 6.4502 2.43896 6.37207C2.51709 6.29395 2.61475 6.25 2.73193 6.24023C3.64502 6.11816 4.41406 5.98389 5.03906 5.8374C5.66406 5.68604 6.17676 5.48828 6.57715 5.24414C6.98242 5 7.30713 4.67529 7.55127 4.27002C7.80029 3.86475 8.00049 3.34717 8.15186 2.71729C8.30811 2.0874 8.44971 1.30859 8.57666 0.380859C8.59131 0.268555 8.63525 0.178223 8.7085 0.109863C8.78662 0.0366211 8.87939 0 8.98682 0ZM3.25928 9.36035C3.3374 9.36035 3.40088 9.38477 3.44971 9.43359C3.50342 9.47754 3.53516 9.53857 3.54492 9.6167C3.61816 10.1831 3.69385 10.625 3.77197 10.9424C3.8501 11.2549 3.97217 11.4917 4.13818 11.6528C4.3042 11.814 4.55322 11.9385 4.88525 12.0264C5.21729 12.1143 5.67383 12.2144 6.25488 12.3267C6.32812 12.3364 6.38916 12.3657 6.43799 12.4146C6.48682 12.4634 6.51123 12.5293 6.51123 12.6123C6.51123 12.6904 6.48682 12.7539 6.43799 12.8027C6.38916 12.8516 6.32812 12.8809 6.25488 12.8906C5.67383 12.9736 5.21729 13.0542 4.88525 13.1323C4.55322 13.2153 4.3042 13.3398 4.13818 13.5059C3.97217 13.6719 3.8501 13.916 3.77197 14.2383C3.69385 14.5654 3.61816 15.0146 3.54492 15.5859C3.52539 15.7666 3.43018 15.8569 3.25928 15.8569C3.17627 15.8569 3.10791 15.8325 3.0542 15.7837C3.00537 15.7349 2.97852 15.6665 2.97363 15.5786C2.91504 15.1294 2.85645 14.7607 2.79785 14.4727C2.74414 14.1846 2.66602 13.9551 2.56348 13.7842C2.46094 13.6133 2.31689 13.479 2.13135 13.3813C1.95068 13.2837 1.70898 13.1982 1.40625 13.125C1.10352 13.0566 0.720215 12.9785 0.256348 12.8906C0.0854492 12.8613 0 12.7686 0 12.6123C0 12.4463 0.0976562 12.3511 0.292969 12.3267C0.751953 12.2485 1.13037 12.1777 1.42822 12.1143C1.72607 12.0508 1.96533 11.9702 2.146 11.8726C2.32666 11.77 2.46582 11.6309 2.56348 11.4551C2.66602 11.2744 2.74414 11.04 2.79785 10.752C2.85645 10.459 2.91504 10.0854 2.97363 9.63135C2.97852 9.54834 3.00537 9.48242 3.0542 9.43359C3.10791 9.38477 3.17627 9.36035 3.25928 9.36035Z" fill="#3C3C43" fill-opacity="0.6"/>
</svg>
