<svg width="14" height="17" viewBox="0 0 14 17" fill="none" xmlns="http://www.w3.org/2000/svg">
<path d="M2.27051 15.7031C1.51367 15.7031 0.944824 15.5103 0.563965 15.1245C0.187988 14.7437 0 14.1699 0 13.4033V2.2998C0 1.53809 0.187988 0.964355 0.563965 0.578613C0.944824 0.192871 1.51367 0 2.27051 0H10.0488C10.8057 0 11.3721 0.192871 11.748 0.578613C12.1289 0.959473 12.3193 1.5332 12.3193 2.2998V10.2246C12.1631 9.99023 11.9849 9.77783 11.7847 9.5874C11.5894 9.39697 11.3745 9.22852 11.1401 9.08203V2.31445C11.1401 1.95313 11.04 1.6748 10.8398 1.47949C10.6396 1.2793 10.3564 1.1792 9.99023 1.1792H2.3291C1.94824 1.1792 1.66016 1.2793 1.46484 1.47949C1.27441 1.6748 1.1792 1.95313 1.1792 2.31445V13.3887C1.1792 13.75 1.27441 14.0283 1.46484 14.2236C1.66016 14.4238 1.94824 14.5239 2.3291 14.5239H5.72754C5.87402 14.7583 6.04248 14.9756 6.23291 15.1758C6.42822 15.376 6.64307 15.5518 6.87744 15.7031H2.27051ZM3.38379 4.16748C3.25195 4.16748 3.14209 4.12354 3.0542 4.03564C2.97119 3.94287 2.92969 3.83301 2.92969 3.70605C2.92969 3.58398 2.97119 3.48145 3.0542 3.39844C3.14209 3.31055 3.25195 3.2666 3.38379 3.2666H8.94287C9.06982 3.2666 9.1748 3.31055 9.25781 3.39844C9.3457 3.48145 9.38965 3.58398 9.38965 3.70605C9.38965 3.83301 9.3457 3.94287 9.25781 4.03564C9.1748 4.12354 9.06982 4.16748 8.94287 4.16748H3.38379ZM3.38379 6.71631C3.25195 6.71631 3.14209 6.67236 3.0542 6.58447C2.97119 6.49658 2.92969 6.38916 2.92969 6.26221C2.92969 6.13525 2.97119 6.03027 3.0542 5.94727C3.14209 5.85938 3.25195 5.81543 3.38379 5.81543H8.94287C9.06982 5.81543 9.1748 5.85938 9.25781 5.94727C9.3457 6.03027 9.38965 6.13525 9.38965 6.26221C9.38965 6.38916 9.3457 6.49658 9.25781 6.58447C9.1748 6.67236 9.06982 6.71631 8.94287 6.71631H3.38379ZM9.00879 15.3369C8.47168 15.3369 7.97852 15.2026 7.5293 14.9341C7.08008 14.6704 6.72119 14.314 6.45264 13.8647C6.18896 13.4155 6.05713 12.9199 6.05713 12.3779C6.05713 11.8359 6.18896 11.3428 6.45264 10.8984C6.72119 10.4492 7.08008 10.0928 7.5293 9.8291C7.97852 9.56055 8.47168 9.42627 9.00879 9.42627C9.55078 9.42627 10.0439 9.56055 10.4883 9.8291C10.9375 10.0928 11.2939 10.4492 11.5576 10.8984C11.8262 11.3428 11.9604 11.8359 11.9604 12.3779C11.9604 12.9199 11.8262 13.4155 11.5576 13.8647C11.2939 14.314 10.9375 14.6704 10.4883 14.9341C10.0439 15.2026 9.55078 15.3369 9.00879 15.3369ZM9.00879 14.3555C9.37012 14.3555 9.69971 14.2651 9.99756 14.0845C10.2954 13.9038 10.5322 13.6646 10.708 13.3667C10.8887 13.0688 10.979 12.7393 10.979 12.3779C10.979 12.0215 10.8887 11.6943 10.708 11.3965C10.5322 11.0986 10.2954 10.8618 9.99756 10.686C9.69971 10.5054 9.37012 10.415 9.00879 10.415C8.65234 10.415 8.3252 10.5054 8.02734 10.686C7.72949 10.8618 7.49023 11.0986 7.30957 11.3965C7.12891 11.6943 7.03857 12.0215 7.03857 12.3779C7.03857 12.7393 7.12891 13.0688 7.30957 13.3667C7.49023 13.6646 7.72949 13.9038 8.02734 14.0845C8.3252 14.2651 8.65234 14.3555 9.00879 14.3555ZM12.876 16.8896C12.6904 16.8896 12.522 16.8164 12.3706 16.6699L10.459 14.7729L11.3525 13.9087L13.2642 15.835C13.3228 15.8936 13.3716 15.9595 13.4106 16.0327C13.4497 16.1108 13.4692 16.1914 13.4692 16.2744C13.4692 16.4551 13.4131 16.6016 13.3008 16.7139C13.1885 16.8311 13.0469 16.8896 12.876 16.8896Z" fill="#3C3C43" fill-opacity="0.6"/>
</svg>
