<svg width="16" height="15" viewBox="0 0 16 15" fill="none" xmlns="http://www.w3.org/2000/svg">
<path d="M4.99219 3.07227C4.86328 3.07227 4.75407 3.02751 4.66455 2.93799C4.57503 2.84489 4.53027 2.73568 4.53027 2.61035C4.53027 2.48503 4.57503 2.3776 4.66455 2.28809C4.75407 2.19499 4.86328 2.14844 4.99219 2.14844C5.11751 2.14844 5.22493 2.19499 5.31445 2.28809C5.40755 2.3776 5.4541 2.48503 5.4541 2.61035C5.4541 2.73568 5.40755 2.84489 5.31445 2.93799C5.22493 3.02751 5.11751 3.07227 4.99219 3.07227ZM6.49072 3.07227C6.3654 3.07227 6.25618 3.02751 6.16309 2.93799C6.07357 2.84489 6.02881 2.73568 6.02881 2.61035C6.02881 2.48503 6.07357 2.3776 6.16309 2.28809C6.25618 2.19499 6.3654 2.14844 6.49072 2.14844C6.61605 2.14844 6.72347 2.19499 6.81299 2.28809C6.90609 2.3776 6.95264 2.48503 6.95264 2.61035C6.95264 2.73568 6.90609 2.84489 6.81299 2.93799C6.72347 3.02751 6.61605 3.07227 6.49072 3.07227ZM7.99463 3.07227C7.86572 3.07227 7.75651 3.02751 7.66699 2.93799C7.57747 2.84489 7.53271 2.73568 7.53271 2.61035C7.53271 2.48503 7.57747 2.3776 7.66699 2.28809C7.75651 2.19499 7.86572 2.14844 7.99463 2.14844C8.11995 2.14844 8.22738 2.19499 8.31689 2.28809C8.40999 2.3776 8.45654 2.48503 8.45654 2.61035C8.45654 2.73568 8.40999 2.84489 8.31689 2.93799C8.22738 3.02751 8.11995 3.07227 7.99463 3.07227ZM9.49316 3.07227C9.36784 3.07227 9.25863 3.02751 9.16553 2.93799C9.07601 2.84489 9.03125 2.73568 9.03125 2.61035C9.03125 2.48503 9.07601 2.3776 9.16553 2.28809C9.25863 2.19499 9.36784 2.14844 9.49316 2.14844C9.62207 2.14844 9.73128 2.19499 9.8208 2.28809C9.91032 2.3776 9.95508 2.48503 9.95508 2.61035C9.95508 2.73568 9.91032 2.84489 9.8208 2.93799C9.73128 3.02751 9.62207 3.07227 9.49316 3.07227ZM10.9971 3.07227C10.8682 3.07227 10.759 3.02751 10.6694 2.93799C10.5799 2.84489 10.5352 2.73568 10.5352 2.61035C10.5352 2.48503 10.5799 2.3776 10.6694 2.28809C10.759 2.19499 10.8682 2.14844 10.9971 2.14844C11.1224 2.14844 11.2298 2.19499 11.3193 2.28809C11.4124 2.3776 11.459 2.48503 11.459 2.61035C11.459 2.73568 11.4124 2.84489 11.3193 2.93799C11.2298 3.02751 11.1224 3.07227 10.9971 3.07227ZM12.4956 3.07227C12.3703 3.07227 12.2611 3.02751 12.168 2.93799C12.0785 2.84489 12.0337 2.73568 12.0337 2.61035C12.0337 2.48503 12.0785 2.3776 12.168 2.28809C12.2611 2.19499 12.3703 2.14844 12.4956 2.14844C12.6209 2.14844 12.7284 2.19499 12.8179 2.28809C12.911 2.3776 12.9575 2.48503 12.9575 2.61035C12.9575 2.73568 12.911 2.84489 12.8179 2.93799C12.7284 3.02751 12.6209 3.07227 12.4956 3.07227ZM12.4956 4.5708C12.3703 4.5708 12.2611 4.52604 12.168 4.43652C12.0785 4.34701 12.0337 4.23779 12.0337 4.10889C12.0337 3.98356 12.0785 3.87614 12.168 3.78662C12.2611 3.69352 12.3703 3.64697 12.4956 3.64697C12.6209 3.64697 12.7284 3.69352 12.8179 3.78662C12.911 3.87614 12.9575 3.98356 12.9575 4.10889C12.9575 4.23779 12.911 4.34701 12.8179 4.43652C12.7284 4.52604 12.6209 4.5708 12.4956 4.5708ZM12.4956 6.07471C12.3703 6.07471 12.2611 6.02995 12.168 5.94043C12.0785 5.84733 12.0337 5.73812 12.0337 5.61279C12.0337 5.48389 12.0785 5.37467 12.168 5.28516C12.2611 5.19564 12.3703 5.15088 12.4956 5.15088C12.6209 5.15088 12.7284 5.19564 12.8179 5.28516C12.911 5.37467 12.9575 5.48389 12.9575 5.61279C12.9575 5.73812 12.911 5.84733 12.8179 5.94043C12.7284 6.02995 12.6209 6.07471 12.4956 6.07471ZM12.4956 7.57324C12.3703 7.57324 12.2611 7.52848 12.168 7.43896C12.0785 7.34945 12.0337 7.24023 12.0337 7.11133C12.0337 6.986 12.0785 6.87858 12.168 6.78906C12.2611 6.69596 12.3703 6.64941 12.4956 6.64941C12.6209 6.64941 12.7284 6.69596 12.8179 6.78906C12.911 6.87858 12.9575 6.986 12.9575 7.11133C12.9575 7.24023 12.911 7.34945 12.8179 7.43896C12.7284 7.52848 12.6209 7.57324 12.4956 7.57324ZM12.4956 9.07715C12.3703 9.07715 12.2611 9.03239 12.168 8.94287C12.0785 8.84977 12.0337 8.74056 12.0337 8.61523C12.0337 8.48991 12.0785 8.38249 12.168 8.29297C12.2611 8.19987 12.3703 8.15332 12.4956 8.15332C12.6209 8.15332 12.7284 8.19987 12.8179 8.29297C12.911 8.38249 12.9575 8.48991 12.9575 8.61523C12.9575 8.74056 12.911 8.84977 12.8179 8.94287C12.7284 9.03239 12.6209 9.07715 12.4956 9.07715ZM12.4956 10.5757C12.3703 10.5757 12.2611 10.5309 12.168 10.4414C12.0785 10.3519 12.0337 10.2427 12.0337 10.1138C12.0337 9.98844 12.0785 9.88102 12.168 9.7915C12.2611 9.6984 12.3703 9.65186 12.4956 9.65186C12.6209 9.65186 12.7284 9.6984 12.8179 9.7915C12.911 9.88102 12.9575 9.98844 12.9575 10.1138C12.9575 10.2427 12.911 10.3519 12.8179 10.4414C12.7284 10.5309 12.6209 10.5757 12.4956 10.5757ZM3.47217 12.0742C3.34326 12.0742 3.23942 12.0348 3.16064 11.9561C3.08187 11.8773 3.04248 11.7734 3.04248 11.6445V2.57275C3.04248 2.45459 3.08366 2.35433 3.16602 2.27197C3.24837 2.18962 3.34863 2.14844 3.4668 2.14844C3.58854 2.14844 3.69059 2.18962 3.77295 2.27197C3.85889 2.35433 3.90186 2.45459 3.90186 2.57275V11.0591C3.90186 11.1629 3.95378 11.2148 4.05762 11.2148H12.5278C12.646 11.2148 12.7463 11.256 12.8286 11.3384C12.9146 11.4207 12.9575 11.5228 12.9575 11.6445C12.9575 11.7627 12.9146 11.863 12.8286 11.9453C12.7463 12.0312 12.646 12.0742 12.5278 12.0742H3.47217ZM5.06738 9.6626L5.43799 7.92773C5.46305 7.80599 5.52751 7.72721 5.63135 7.69141C5.73519 7.65202 5.83008 7.6735 5.91602 7.75586L6.38867 8.24463L9.16016 5.51611L8.67139 5.02734C8.58903 4.94141 8.56576 4.8501 8.60156 4.75342C8.63737 4.65316 8.71794 4.59049 8.84326 4.56543L10.5674 4.2002C10.682 4.17513 10.7786 4.2002 10.8574 4.27539C10.9362 4.35059 10.9631 4.44368 10.938 4.55469L10.5674 6.28955C10.5423 6.4113 10.4779 6.49186 10.374 6.53125C10.2702 6.56706 10.1753 6.54378 10.0894 6.46143L9.61133 5.97266L6.84521 8.70117L7.33398 9.18994C7.41634 9.2723 7.43783 9.36361 7.39844 9.46387C7.36263 9.56413 7.28385 9.62679 7.16211 9.65186L5.43262 10.0171C5.31803 10.0422 5.22135 10.0189 5.14258 9.94727C5.06738 9.87207 5.04232 9.77718 5.06738 9.6626Z" fill="#00A19A"/>
</svg>
