<svg width="13" height="13" viewBox="0 0 13 13" fill="none" xmlns="http://www.w3.org/2000/svg">
<path d="M2.84668 10.7637C2.36686 10.7637 2.01237 10.6491 1.7832 10.4199C1.55404 10.1908 1.43945 9.83626 1.43945 9.35645V8.19629C1.43945 8.08887 1.40365 7.99756 1.33203 7.92236L0.510254 7.09521C0.170085 6.75863 0 6.4292 0 6.10693C0 5.78467 0.170085 5.45345 0.510254 5.11328L1.33203 4.28613C1.40365 4.21094 1.43945 4.12142 1.43945 4.01758V2.85205C1.43945 2.36865 1.55404 2.01416 1.7832 1.78857C2.01237 1.55941 2.36686 1.44482 2.84668 1.44482H4.01221C4.11963 1.44482 4.20915 1.40902 4.28076 1.3374L5.10791 0.515625C5.44808 0.175456 5.7793 0.00537109 6.10156 0.00537109C6.42383 0.00179036 6.75326 0.171875 7.08984 0.515625L7.91699 1.3374C7.99219 1.40902 8.0835 1.44482 8.19092 1.44482H9.35107C9.83447 1.44482 10.189 1.5612 10.4146 1.79395C10.6437 2.02311 10.7583 2.37581 10.7583 2.85205V4.01758C10.7583 4.12142 10.7959 4.21094 10.8711 4.28613L11.6929 5.11328C12.0295 5.45345 12.1978 5.78467 12.1978 6.10693C12.2013 6.4292 12.033 6.75863 11.6929 7.09521L10.8711 7.92236C10.7959 7.99756 10.7583 8.08887 10.7583 8.19629V9.35645C10.7583 9.83984 10.6437 10.1943 10.4146 10.4199C10.1854 10.6491 9.83089 10.7637 9.35107 10.7637H8.19092C8.0835 10.7637 7.99219 10.8013 7.91699 10.8765L7.08984 11.6982C6.75326 12.0348 6.42383 12.2031 6.10156 12.2031C5.7793 12.2067 5.44808 12.0384 5.10791 11.6982L4.28076 10.8765C4.20915 10.8013 4.11963 10.7637 4.01221 10.7637H2.84668ZM5.5 8.72803C5.5931 8.72803 5.67725 8.70654 5.75244 8.66357C5.82764 8.62061 5.89388 8.55615 5.95117 8.47021L8.47559 4.49023C8.50781 4.43652 8.53825 4.37923 8.56689 4.31836C8.59554 4.25749 8.60986 4.19661 8.60986 4.13574C8.60986 4.01042 8.56331 3.91195 8.47021 3.84033C8.37712 3.76514 8.27327 3.72754 8.15869 3.72754C8.00114 3.72754 7.87223 3.8099 7.77197 3.97461L5.47852 7.65918L4.38818 6.25195C4.32015 6.16243 4.25391 6.10156 4.18945 6.06934C4.12858 6.03711 4.05876 6.021 3.97998 6.021C3.85824 6.021 3.75618 6.06576 3.67383 6.15527C3.59147 6.24121 3.55029 6.34505 3.55029 6.4668C3.55029 6.52767 3.56104 6.58854 3.58252 6.64941C3.60758 6.70671 3.63981 6.76221 3.6792 6.81592L5.02734 8.47021C5.09896 8.56331 5.17236 8.62956 5.24756 8.66895C5.32275 8.70833 5.4069 8.72803 5.5 8.72803Z" fill="white"/>
</svg>
