<svg width="17" height="16" viewBox="0 0 17 16" fill="none" xmlns="http://www.w3.org/2000/svg">
<path d="M4.75977 9.96826H11.3882C11.5347 9.96826 11.6421 9.92676 11.7104 9.84375C11.7837 9.75586 11.8203 9.646 11.8203 9.51416C11.8203 9.31396 11.7446 9.05762 11.5933 8.74512C11.4419 8.42773 11.2124 8.11035 10.9048 7.79297C10.5972 7.4707 10.2065 7.20215 9.73291 6.9873C9.26416 6.76758 8.7124 6.65771 8.07764 6.65771C7.43799 6.65771 6.88379 6.76758 6.41504 6.9873C5.94629 7.20215 5.55811 7.4707 5.25049 7.79297C4.94287 8.11035 4.71338 8.42773 4.56201 8.74512C4.41064 9.05762 4.33496 9.31396 4.33496 9.51416C4.33496 9.646 4.36914 9.75586 4.4375 9.84375C4.50586 9.92676 4.61328 9.96826 4.75977 9.96826ZM8.07764 6.06445C8.41943 6.06934 8.73193 5.98389 9.01514 5.80811C9.29834 5.62744 9.52295 5.3833 9.68896 5.07568C9.85498 4.76318 9.93799 4.41406 9.93799 4.02832C9.93799 3.66699 9.85498 3.33496 9.68896 3.03223C9.52295 2.72949 9.29834 2.48779 9.01514 2.30713C8.73193 2.12646 8.41943 2.03613 8.07764 2.03613C7.73096 2.03613 7.41602 2.12646 7.13281 2.30713C6.85449 2.48779 6.62988 2.72949 6.45898 3.03223C6.29297 3.33496 6.20996 3.66699 6.20996 4.02832C6.20996 4.41406 6.29297 4.76074 6.45898 5.06836C6.62988 5.37598 6.85449 5.62012 7.13281 5.80078C7.41602 5.97656 7.73096 6.06445 8.07764 6.06445ZM4.34961 15.1978C4.13965 15.1978 3.97852 15.1294 3.86621 14.9927C3.75391 14.856 3.69775 14.6729 3.69775 14.4434V12.312H3.35352C2.62598 12.312 2.01318 12.1826 1.51514 11.9238C1.01709 11.665 0.638672 11.2866 0.379883 10.7886C0.125977 10.2905 -0.000976562 9.68262 -0.000976562 8.96484V3.35449C-0.000976562 2.63672 0.125977 2.02881 0.379883 1.53076C0.638672 1.03271 1.01709 0.654297 1.51514 0.395508C2.01318 0.131836 2.62598 0 3.35352 0H12.7871C13.5146 0 14.1274 0.131836 14.6255 0.395508C15.1235 0.654297 15.4995 1.03271 15.7534 1.53076C16.0122 2.02881 16.1416 2.63672 16.1416 3.35449V8.96484C16.1416 9.68262 16.0122 10.2905 15.7534 10.7886C15.4995 11.2866 15.1235 11.665 14.6255 11.9238C14.1274 12.1826 13.5146 12.312 12.7871 12.312H7.83594L5.19189 14.729C5.01611 14.8901 4.86719 15.0073 4.74512 15.0806C4.62793 15.1587 4.49609 15.1978 4.34961 15.1978Z" fill="white"/>
</svg>
