<svg width="15" height="15" viewBox="0 0 15 15" fill="none" xmlns="http://www.w3.org/2000/svg">
<path d="M7.46875 14.9414C6.43848 14.9414 5.47168 14.7461 4.56836 14.3555C3.66504 13.9697 2.87158 13.4351 2.18799 12.7515C1.50439 12.0679 0.967285 11.2744 0.57666 10.3711C0.190918 9.46777 -0.00195312 8.50098 -0.00195312 7.4707C-0.00195312 6.44043 0.190918 5.47363 0.57666 4.57031C0.967285 3.66699 1.50439 2.87354 2.18799 2.18994C2.87158 1.50146 3.66504 0.964355 4.56836 0.578613C5.47168 0.192871 6.43848 0 7.46875 0C8.49902 0 9.46582 0.192871 10.3691 0.578613C11.2725 0.964355 12.0659 1.50146 12.7495 2.18994C13.4331 2.87354 13.9678 3.66699 14.3535 4.57031C14.7441 5.47363 14.9395 6.44043 14.9395 7.4707C14.9395 8.50098 14.7441 9.46777 14.3535 10.3711C13.9678 11.2744 13.4331 12.0679 12.7495 12.7515C12.0659 13.4351 11.2725 13.9697 10.3691 14.3555C9.46582 14.7461 8.49902 14.9414 7.46875 14.9414ZM7.46875 13.6963C8.32812 13.6963 9.13379 13.5352 9.88574 13.2129C10.6377 12.8906 11.2993 12.4438 11.8706 11.8726C12.4419 11.3013 12.8887 10.6396 13.2109 9.8877C13.5332 9.13574 13.6943 8.33008 13.6943 7.4707C13.6943 6.61133 13.5332 5.80566 13.2109 5.05371C12.8887 4.29688 12.4419 3.63525 11.8706 3.06885C11.2993 2.49756 10.6377 2.05078 9.88574 1.72852C9.13379 1.40625 8.32812 1.24512 7.46875 1.24512C6.60938 1.24512 5.80371 1.40625 5.05176 1.72852C4.2998 2.05078 3.63818 2.49756 3.06689 3.06885C2.49561 3.63525 2.04883 4.29688 1.72656 5.05371C1.4043 5.80566 1.24316 6.61133 1.24316 7.4707C1.24316 8.33008 1.4043 9.13574 1.72656 9.8877C2.04883 10.6396 2.49561 11.3013 3.06689 11.8726C3.63818 12.4438 4.2998 12.8906 5.05176 13.2129C5.80371 13.5352 6.60938 13.6963 7.46875 13.6963ZM7.32227 8.98682C6.93164 8.98682 6.73633 8.79395 6.73633 8.4082C6.73633 8.39355 6.73633 8.37891 6.73633 8.36426C6.73633 8.34473 6.73633 8.32764 6.73633 8.31299C6.73633 7.95166 6.82178 7.66113 6.99268 7.44141C7.16846 7.22168 7.38818 7.02148 7.65186 6.84082C7.97412 6.61621 8.21338 6.42578 8.36963 6.26953C8.52588 6.1084 8.604 5.90332 8.604 5.6543C8.604 5.37598 8.50391 5.15137 8.30371 4.98047C8.10352 4.80469 7.83496 4.7168 7.49805 4.7168C7.33691 4.7168 7.18555 4.74365 7.04395 4.79736C6.90723 4.85107 6.78271 4.9292 6.67041 5.03174C6.55811 5.12939 6.45801 5.24902 6.37012 5.39062L6.23828 5.56641C6.1748 5.6543 6.09912 5.7251 6.01123 5.77881C5.92822 5.83252 5.82568 5.85938 5.70361 5.85938C5.58154 5.85938 5.4668 5.81787 5.35938 5.73486C5.25195 5.64697 5.19824 5.52002 5.19824 5.354C5.19824 5.29053 5.20312 5.22949 5.21289 5.1709C5.22266 5.1123 5.2373 5.05371 5.25684 4.99512C5.35938 4.6582 5.6084 4.36279 6.00391 4.10889C6.4043 3.8501 6.91943 3.7207 7.54932 3.7207C7.96436 3.7207 8.34766 3.79395 8.69922 3.94043C9.05078 4.08203 9.33398 4.29199 9.54883 4.57031C9.76855 4.84863 9.87842 5.19043 9.87842 5.5957C9.87842 6.03516 9.76367 6.38184 9.53418 6.63574C9.30469 6.88965 9.01416 7.13379 8.6626 7.36816C8.40381 7.53906 8.21338 7.7002 8.09131 7.85156C7.96924 7.99805 7.9082 8.17383 7.9082 8.37891C7.9082 8.38867 7.9082 8.40332 7.9082 8.42285C7.9082 8.4375 7.9082 8.45215 7.9082 8.4668C7.9082 8.6084 7.85449 8.73047 7.74707 8.83301C7.64453 8.93555 7.50293 8.98682 7.32227 8.98682ZM7.30029 11.1694C7.09033 11.1694 6.90723 11.0962 6.75098 10.9497C6.59473 10.7983 6.5166 10.6177 6.5166 10.4077C6.5166 10.1978 6.59229 10.0195 6.74365 9.87305C6.8999 9.72168 7.08545 9.646 7.30029 9.646C7.51514 9.646 7.70068 9.71924 7.85693 9.86572C8.01318 10.0122 8.09131 10.1929 8.09131 10.4077C8.09131 10.6226 8.01318 10.8032 7.85693 10.9497C7.70068 11.0962 7.51514 11.1694 7.30029 11.1694Z" fill="#00A19A"/>
</svg>
