<svg width="15" height="15" viewBox="0 0 15 15" fill="none" xmlns="http://www.w3.org/2000/svg">
<path d="M7.46875 14.9414C6.43848 14.9414 5.47168 14.7461 4.56836 14.3555C3.66504 13.9697 2.87158 13.4351 2.18799 12.7515C1.50439 12.0679 0.967285 11.2744 0.57666 10.3711C0.190918 9.46777 -0.00195312 8.50098 -0.00195312 7.4707C-0.00195312 6.44043 0.190918 5.47363 0.57666 4.57031C0.967285 3.66699 1.50439 2.87354 2.18799 2.18994C2.87158 1.50146 3.66504 0.964355 4.56836 0.578613C5.47168 0.192871 6.43848 0 7.46875 0C8.49902 0 9.46582 0.192871 10.3691 0.578613C11.2725 0.964355 12.0659 1.50146 12.7495 2.18994C13.4331 2.87354 13.9678 3.66699 14.3535 4.57031C14.7441 5.47363 14.9395 6.44043 14.9395 7.4707C14.9395 8.50098 14.7441 9.46777 14.3535 10.3711C13.9678 11.2744 13.4331 12.0679 12.7495 12.7515C12.0659 13.4351 11.2725 13.9697 10.3691 14.3555C9.46582 14.7461 8.49902 14.9414 7.46875 14.9414ZM7.46875 13.6963C8.32812 13.6963 9.13379 13.5352 9.88574 13.2129C10.6377 12.8906 11.2993 12.4438 11.8706 11.8726C12.4419 11.3013 12.8887 10.6396 13.2109 9.8877C13.5332 9.13574 13.6943 8.33008 13.6943 7.4707C13.6943 6.61133 13.5332 5.80566 13.2109 5.05371C12.8887 4.29688 12.4419 3.63525 11.8706 3.06885C11.2993 2.49756 10.6377 2.05078 9.88574 1.72852C9.13379 1.40625 8.32812 1.24512 7.46875 1.24512C6.60938 1.24512 5.80371 1.40625 5.05176 1.72852C4.2998 2.05078 3.63818 2.49756 3.06689 3.06885C2.49561 3.63525 2.04883 4.29688 1.72656 5.05371C1.4043 5.80566 1.24316 6.61133 1.24316 7.4707C1.24316 8.33008 1.4043 9.13574 1.72656 9.8877C2.04883 10.6396 2.49561 11.3013 3.06689 11.8726C3.63818 12.4438 4.2998 12.8906 5.05176 13.2129C5.80371 13.5352 6.60938 13.6963 7.46875 13.6963ZM6.09912 10.3345C5.98682 10.4028 5.87451 10.4321 5.76221 10.4224C5.6499 10.4126 5.55469 10.3735 5.47656 10.3052C5.40332 10.2319 5.3667 10.1367 5.3667 10.0195V4.9292C5.3667 4.81201 5.40576 4.71924 5.48389 4.65088C5.56201 4.58252 5.65723 4.5459 5.76953 4.54102C5.88672 4.53125 5.99658 4.55566 6.09912 4.61426L10.2739 7.08984C10.3716 7.14844 10.4375 7.229 10.4717 7.33154C10.5059 7.4292 10.5059 7.5293 10.4717 7.63184C10.4424 7.72949 10.3765 7.81006 10.2739 7.87354L6.09912 10.3345Z" fill="white"/>
</svg>
