<svg width="18" height="20" viewBox="0 0 18 20" fill="none" xmlns="http://www.w3.org/2000/svg">
<path d="M3.5459 9.82812V2.60645C3.5459 1.74316 3.75895 1.09294 4.18506 0.655762C4.6167 0.218587 5.26139 0 6.11914 0H10.062C10.3719 0 10.6431 0.0221354 10.8755 0.0664062C11.1134 0.105143 11.332 0.182617 11.5312 0.298828C11.7305 0.409505 11.9352 0.572754 12.1455 0.788574L16.7192 5.44531C16.9406 5.6722 17.1066 5.88802 17.2173 6.09277C17.3335 6.29199 17.411 6.51335 17.4497 6.75684C17.4884 7.00033 17.5078 7.30192 17.5078 7.66162V15.1987C17.5078 16.062 17.292 16.7095 16.8604 17.1411C16.4342 17.5783 15.7923 17.7969 14.9346 17.7969H8.8501C8.97184 17.5921 9.07699 17.3763 9.16553 17.1494C9.25407 16.9281 9.32601 16.6984 9.38135 16.4604H14.8682C15.2998 16.4604 15.6235 16.3498 15.8394 16.1284C16.0607 15.9071 16.1714 15.5889 16.1714 15.1738V7.71973H11.4399C10.9198 7.71973 10.5296 7.58968 10.2695 7.32959C10.0094 7.0695 9.87939 6.67936 9.87939 6.15918V1.33643H6.18555C5.75391 1.33643 5.42741 1.44987 5.20605 1.67676C4.99023 1.90365 4.88232 2.22184 4.88232 2.63135V9.82812C4.76611 9.81706 4.65267 9.80876 4.54199 9.80322C4.43132 9.79215 4.31787 9.78662 4.20166 9.78662C4.09098 9.78662 3.98031 9.79215 3.86963 9.80322C3.76449 9.80876 3.65658 9.81706 3.5459 9.82812ZM11.1328 6.00146C11.1328 6.16748 11.166 6.28646 11.2324 6.3584C11.3044 6.43034 11.4233 6.46631 11.5894 6.46631H15.9141L11.1328 1.59375V6.00146ZM4.21826 19.3657C3.64274 19.3657 3.10042 19.255 2.59131 19.0337C2.08219 18.8179 1.63395 18.5163 1.24658 18.1289C0.859212 17.7415 0.55485 17.2933 0.333496 16.7842C0.112142 16.2751 0.00146484 15.73 0.00146484 15.1489C0.00146484 14.5679 0.112142 14.0256 0.333496 13.522C0.55485 13.0129 0.859212 12.5646 1.24658 12.1772C1.63395 11.7843 2.08219 11.48 2.59131 11.2642C3.10042 11.0428 3.64274 10.9321 4.21826 10.9321C4.79932 10.9321 5.3444 11.0428 5.85352 11.2642C6.36263 11.48 6.81087 11.7816 7.19824 12.1689C7.58561 12.5563 7.88721 13.0046 8.10303 13.5137C8.32438 14.0228 8.43506 14.5679 8.43506 15.1489C8.43506 15.7244 8.32438 16.2668 8.10303 16.7759C7.88167 17.285 7.57454 17.7332 7.18164 18.1206C6.79427 18.508 6.34603 18.8123 5.83691 19.0337C5.3278 19.255 4.78825 19.3657 4.21826 19.3657ZM4.22656 12.4678C4.09375 12.4678 3.96094 12.5342 3.82812 12.667L1.97705 14.3687C1.86084 14.4738 1.79997 14.6011 1.79443 14.7505C1.78337 14.8944 1.82764 15.0133 1.92725 15.1074C2.03239 15.2015 2.15413 15.2485 2.29248 15.2485C2.43083 15.2541 2.56087 15.196 2.68262 15.0742L3.17236 14.5762L3.72021 14.0117L3.67871 15.0742V17.2739C3.67871 17.4178 3.73128 17.5423 3.83643 17.6475C3.9471 17.7526 4.07715 17.8052 4.22656 17.8052C4.37598 17.8052 4.50326 17.7526 4.6084 17.6475C4.71908 17.5423 4.77441 17.4178 4.77441 17.2739V15.0742L4.73291 14.0117L5.27246 14.5762L5.77051 15.0742C5.82031 15.124 5.87842 15.1628 5.94482 15.1904C6.01123 15.2236 6.0804 15.243 6.15234 15.2485C6.29622 15.2541 6.4152 15.207 6.50928 15.1074C6.60335 15.0133 6.65039 14.8944 6.65039 14.7505C6.65039 14.6066 6.59229 14.4793 6.47607 14.3687L4.6167 12.667C4.47282 12.5342 4.34277 12.4678 4.22656 12.4678Z" fill="#00A19A"/>
</svg>
