<svg width="16" height="16" viewBox="0 0 16 16" fill="none" xmlns="http://www.w3.org/2000/svg">
<path d="M2.60596 15.2817C1.73714 15.2817 1.08415 15.0659 0.646973 14.6343C0.215332 14.2082 -0.000488281 13.569 -0.000488281 12.7168V2.57324C-0.000488281 1.71549 0.215332 1.07357 0.646973 0.647461C1.08415 0.21582 1.73714 0 2.60596 0H12.6748C13.5436 0 14.1938 0.21582 14.6255 0.647461C15.0627 1.0791 15.2812 1.72103 15.2812 2.57324V12.7168C15.2812 13.569 15.0627 14.2082 14.6255 14.6343C14.1938 15.0659 13.5436 15.2817 12.6748 15.2817H2.60596ZM2.62256 13.9453H12.6582C13.0677 13.9453 13.3831 13.8374 13.6045 13.6216C13.8314 13.4002 13.9448 13.0737 13.9448 12.6421V2.64795C13.9448 2.21631 13.8314 1.88981 13.6045 1.66846C13.3831 1.4471 13.0677 1.33643 12.6582 1.33643H2.62256C2.20752 1.33643 1.88932 1.4471 1.66797 1.66846C1.44661 1.88981 1.33594 2.21631 1.33594 2.64795V12.6421C1.33594 13.0737 1.44661 13.4002 1.66797 13.6216C1.88932 13.8374 2.20752 13.9453 2.62256 13.9453ZM8.74854 3.01318C8.85921 3.11833 8.91455 3.24561 8.91455 3.39502C8.92008 3.5389 8.86751 3.66341 8.75684 3.76855L4.94678 7.58691L4.28271 8.19287C4.18311 8.29248 4.06136 8.34229 3.91748 8.34229C3.77913 8.34229 3.66016 8.29248 3.56055 8.19287C3.46094 8.09326 3.41113 7.97428 3.41113 7.83594C3.41667 7.69206 3.46647 7.57031 3.56055 7.4707L4.19141 6.81494L7.99316 3.01318C8.10384 2.90251 8.23112 2.84717 8.375 2.84717C8.51888 2.84717 8.64339 2.90251 8.74854 3.01318ZM6.73145 8.71582C6.63184 8.8265 6.50456 8.88184 6.34961 8.88184L3.43604 8.90674C3.28109 8.91227 3.14551 8.8597 3.0293 8.74902C2.91309 8.63281 2.85775 8.49723 2.86328 8.34229L2.90479 5.42871C2.90479 5.3623 2.91585 5.29313 2.93799 5.22119C2.96566 5.14372 3.00439 5.08285 3.0542 5.03857C3.16488 4.92236 3.28939 4.86426 3.42773 4.86426C3.57161 4.86426 3.69613 4.92236 3.80127 5.03857C3.91748 5.14372 3.97005 5.26823 3.95898 5.41211L3.94238 6.64893L3.83447 7.90234L5.1377 7.82764L6.35791 7.81104C6.51286 7.81104 6.64014 7.86361 6.73975 7.96875C6.85042 8.07943 6.90299 8.20394 6.89746 8.34229C6.89746 8.48063 6.84212 8.60514 6.73145 8.71582ZM6.52393 12.2603C6.41878 12.1551 6.36344 12.0306 6.35791 11.8867C6.35791 11.7428 6.41325 11.6156 6.52393 11.5049L10.3257 7.69482L10.9897 7.06396C11.0894 6.96989 11.2111 6.92285 11.355 6.92285C11.4989 6.91732 11.6206 6.96436 11.7202 7.06396C11.8198 7.16357 11.8669 7.28532 11.8613 7.4292C11.8613 7.57308 11.8143 7.69759 11.7202 7.80273L11.0977 8.4585L7.2876 12.2686C7.17692 12.3792 7.04964 12.4346 6.90576 12.4346C6.76188 12.429 6.6346 12.3709 6.52393 12.2603ZM12.2349 10.2432C12.1242 10.3538 11.9997 10.4119 11.8613 10.4175C11.723 10.4175 11.5957 10.3621 11.4795 10.2515C11.3799 10.1408 11.3301 10.0135 11.3301 9.86963L11.355 8.64111L11.4297 7.34619L10.1597 7.4541L8.93945 7.4707C8.79557 7.48177 8.66829 7.43197 8.55762 7.32129C8.44694 7.20508 8.3916 7.0778 8.3916 6.93945C8.3916 6.80111 8.44694 6.6766 8.55762 6.56592C8.66276 6.46077 8.79557 6.4082 8.95605 6.4082L11.8613 6.375C12.0107 6.375 12.1436 6.43311 12.2598 6.54932C12.376 6.65999 12.4341 6.79004 12.4341 6.93945L12.4009 9.86133C12.4009 10.0052 12.3455 10.1325 12.2349 10.2432Z" fill="#00A19A"/>
</svg>
